<svg width="286" height="188" viewBox="0 0 286 188" fill="none" xmlns="http://www.w3.org/2000/svg">
    <g id="Group">
    <path id="Vector" d="M120.859 0.663512C128.053 -1.21767 137.366 1.42462 141.42 2.14881C147.192 3.84488 161.211 2.88393 163.294 3.21737C162.457 3.20956 151.724 3.07719 150.795 3.43985C152.449 4.03156 153.366 3.788 154.986 3.8315C170.063 3.69411 159.142 3.2806 191.338 10.0343C192.718 10.332 194.145 10.437 195.49 10.8835L205.401 17.9106C209.633 19.3129 221.493 22.5874 221.697 22.614C222.058 23.2247 221.645 22.7448 226.141 27.2423C226.757 27.8722 226.986 28.9392 227.913 29.2117C237.007 33.0804 230.836 29.4159 241.984 36.9312C242.085 36.9983 246.609 39.9832 246.73 40.0098C246.764 40.1215 252.844 47.623 254.391 49.4293C254.427 49.5411 257.703 57.665 258.339 58.4884C264.465 62.8679 263.753 59.94 270.378 69.025C272.564 78.3476 271.352 76.4615 274.885 82.2062C275.325 82.8016 275.47 83.5442 275.663 84.2462C278.814 94.0792 277.976 91.3387 278.111 93.5293C284.921 103.481 284.738 124.472 285.281 125.866C285.466 127.86 283.275 142.453 283.246 142.565C280.418 152.204 280.015 151.32 281.653 158.64C281.829 159.171 280.793 163.469 280.56 164.93C278.5 169.916 275.183 173.55 267.963 183.368L261.287 186.409L252.549 187.564C252.006 187.228 249.102 186.032 247.947 185.264C245.572 184.8 243.187 184.404 240.804 183.976C236.069 183.55 231.145 179.462 228.543 179.163C224.205 178.51 219.859 178.066 215.518 177.487C215.177 177.331 208.386 173.815 208.369 173.805C206.9 171.588 205.404 169.388 203.956 167.158C202.373 167.793 198.953 166.837 197.822 166.843C196.991 166.243 196.179 165.615 195.337 165.032C182.641 170.676 175.772 169.173 172.589 169.751C165.137 173.453 169.229 172.765 157.037 172.667C156.484 172.489 155.904 172.539 155.335 172.49C154.803 172.292 152.448 172.214 151.878 172.214C151.226 172.55 147.79 175.059 147.715 175.132C147.463 175.226 143.128 176.138 142.895 176.178C141.7 176.006 136.172 176.305 131.266 173.982C130.955 173.808 130.673 174.138 130.397 174.25C129.291 175.024 127.924 175.362 126.879 176.225C126.861 176.229 121.559 178.089 121.44 178.149C119.42 178.185 117.397 178.137 115.377 178.17C113.269 179.31 103.288 181.753 94.3996 179.852C80.5636 176.265 85.8169 176.932 78.1357 173.871C77.7536 173.586 72.8323 169.103 72.7097 168.957C70.1307 166.017 73.131 171.054 67.0361 160.926C66.1433 160.926 65.2488 160.926 64.356 160.926L61.3657 157.736C60.9318 156.456 60.6749 155.124 60.2379 153.844C60.1925 151.766 60.2332 149.687 60.2191 147.608C59.7141 147.596 55.7881 147.338 55.3774 147.123C28.2854 134.559 26.1637 139.935 12.9154 133.507C11.3084 132.611 10.472 132.824 9.51319 131.623C5.86489 126.321 6.82181 131.346 4.77641 122.527C4.72144 116.365 4.85847 116.327 4.66994 116.066C2.30879 112.319 2.4243 111.616 1.22076 109.934C0.933111 108.869 -0.701116 101.84 0.346671 98.9976C0.406207 96.5941 0.627069 96.8155 6.44152 85.503C6.68591 84.7525 6.20973 84.0506 6.05153 83.3361C4.88757 77.0951 5.26686 77.4921 6.54966 72.1665L10.5408 65.796C11.0603 65.4737 15.993 60.8005 16.1046 60.7102C16.7061 60.4689 17.3218 60.259 17.9279 60.0286C17.9685 56.2947 17.5905 57.4562 19.0698 51.3096C21.7698 48.4274 20.0473 48.425 33.4588 39.3692C34.0073 38.4889 35.6143 37.4785 36.4569 36.5677C36.5684 36.4997 43.1295 30.6611 44.6617 30.1503C46.5948 29.8586 53.6244 27.6186 54.7493 27.4428C55.3837 27.4006 56.0385 27.5211 56.6556 27.3112C57.6362 27.3112 58.5745 26.9556 59.555 26.9556C60.6322 25.5585 61.9788 24.4102 63.7452 22.177C72.8636 17.1062 66.2846 18.7444 76.4188 17.005C77.3258 16.7841 78.2953 16.6432 79.2086 16.9095L82.1127 17.1257C83.0854 17.4328 84.1004 17.1445 85.0872 17.0944C85.6692 15.9941 88.2759 14.162 89.4089 13.0709C99.6196 8.03871 97.6296 8.86171 110.162 8.95973C110.601 9.14619 111.041 9.33577 111.505 9.46424C111.869 8.61804 116.666 1.81738 117.186 1.68836C118.405 1.33407 119.667 1.12107 120.859 0.663512ZM124.581 2.19275C123.749 2.38077 122.916 2.56879 122.097 2.80688C121.588 2.77398 121.093 2.9165 120.645 3.14377C119.498 3.37048 115.057 9.82388 114.957 10.4105C114.839 10.2302 114.402 10.1911 114.357 10.4356C114.459 10.5938 114.755 10.7411 114.918 10.6C115.704 10.9479 116.539 11.175 117.325 11.5275C117.834 11.7218 118.412 12.054 118.953 11.7641C118.953 11.7641 126.097 9.1598 127.613 8.51612C127.725 8.46437 135.34 7.01498 144.365 8.89371C146.105 9.0107 151.496 8.79881 153.772 9.02687C153.45 9.1569 153.122 9.26183 152.798 9.37781C152.239 9.37313 151.692 9.49691 151.155 9.63787C141.028 12.4464 140.91 11.2454 136.41 11.1467C135.467 10.6547 134.376 11.0684 133.375 11.0965C127.513 11.0282 126.537 11.3378 119.113 15.189C119.109 15.1872 109.79 11.7834 109.619 11.7437C108.886 11.3962 99.4533 11.4776 99.0142 11.7594C97.747 12.0805 96.6349 12.7872 95.4615 13.334C93.0019 14.4688 93.5087 13.3438 91.1931 15.8032L87.592 19.2579C87.592 19.2579 77.373 19.7794 75.0185 20.0022C67.8753 24.4216 69.9319 22.8181 65.664 26.6155C64.7665 27.6527 63.4163 28.2637 62.7819 29.525C59.7328 35.4889 60.6942 33.8164 58.9692 34.4587C58.5244 34.4243 58.0513 34.3804 57.6519 34.6201C57.5394 34.6224 52.6386 35.2849 52.4656 35.3518C44.2125 40.9411 38.8886 44.0814 35.4513 51.8358C35.785 52.0238 36.1217 52.2072 36.457 52.3952C28.4718 64.7707 19.9933 63.6734 18.8366 72.5017C18.5562 72.978 18.5406 73.5483 18.8413 74.0184C18.9979 74.7532 19.2015 75.4833 19.4569 76.1915L26.9882 77.1676C27.2818 75.1854 27.4356 75.6087 27.5035 74.5887C27.6993 74.0246 27.7666 73.3948 28.1473 72.9122C28.722 72.2376 31.6508 67.3622 32.1808 66.7611C32.2159 66.7197 37.1709 62.756 37.3233 62.667C37.9796 62.3788 38.7095 62.3161 39.3925 62.1014C39.7591 62.1061 40.1271 62.103 40.4937 62.0983C40.8964 60.6475 40.5974 57.2544 41.6043 55.1668C42.4729 54.3549 43.4034 52.628 45.4905 49.9933C48.1249 47.9347 51.4764 44.5689 53.2332 43.4865C53.3457 43.4327 62.3823 39.1523 63.396 38.8113C56.2368 44.6935 46.1133 48.8722 44.4191 57.9338L44.4284 57.8069C44.3047 58.7439 44.3831 59.698 44.1951 60.6302L44.3455 60.6364C45.0142 60.9849 44.7508 60.7263 51.236 61.7316L51.1123 61.7285C51.9409 61.8131 52.7743 61.8821 53.6091 61.8836C55.3253 59.7405 56.5169 58.7252 56.6761 52.3263C57.0818 54.1265 57.0092 54.6555 57.3841 55.6933C57.5246 58.644 58.2766 54.7107 57.2712 63.2656C65.2993 68.9082 54.2809 64.2911 73.6949 64.4484C73.6949 64.4484 76.376 64.9196 82.2835 65.5937C85.1257 59.7965 84.3272 59.9175 85.244 57.7708C85.2654 57.8758 85.2486 63.365 85.2471 63.4723C85.2342 65.6934 88.5095 71.8089 88.8592 73.1848C88.9829 74.1469 88.9876 75.1433 89.3353 76.0614C89.8844 84.8084 95.1616 90.7217 95.6668 91.4941C86.3351 86.2546 88.9084 71.9671 81.9686 69.2961C77.7142 67.8559 82.5297 68.0315 66.1747 68.0583C64.9211 68.0258 64.0071 69.1657 61.1622 70.8456C60.3792 71.2625 57.1418 79.8733 57.124 80.1163C56.0985 88.2881 55.9539 86.5823 56.5616 87.9674C57.0535 88.8651 57.2086 89.9431 57.8712 90.7469C57.6096 90.9976 58.0716 91.4645 58.327 91.2076C60.3522 93.3049 69.8417 95.6982 74.4812 101.412C67.6345 99.6997 58.277 95.2807 58.1469 95.1558C53.5135 90.7838 55.5725 93.8103 53.5025 90.1218C53.3989 89.4838 52.3245 86.6639 51.9753 85.9949C51.9629 85.7959 51.9503 85.5985 51.9393 85.4011C48.787 85.3482 44.5068 85.3807 44.5068 85.3807C45.2373 84.9814 50.3555 83.125 51.8062 82.7767L54.7212 73.6925C54.9687 73.3603 55.0721 72.9577 55.0925 72.5504C55.1429 72.4386 56.7072 69.6322 57.1007 69.1019C55.2526 66.9445 55.1524 66.3627 54.5381 66.1956C48.6685 64.4499 48.3432 63.2203 43.1409 64.5269C42.4821 64.5137 40.1878 64.7898 39.3643 65.1787C36.6262 67.6994 32.8653 70.8498 32.668 71.4771C31.7272 74.461 29.5527 79.5061 28.8961 82.0654C28.5175 82.694 28.6112 89.9559 28.8757 90.4884C29.1968 92.3309 29.8281 94.1029 30.298 95.911C30.4687 96.7869 31.3208 97.2067 31.9929 97.6595C33.0737 98.3301 34.0214 99.1917 35.0803 99.8937C38.3343 100.287 39.688 99.6979 42.9216 98.7421C48.2405 114.902 46.6444 109.299 51.2282 116.653C58.2812 121.048 72.1146 123.542 75.5387 115.926C75.6202 115.281 75.7534 114.446 75.213 113.963C72.3208 111.033 72.7771 110.24 63.1 108.08C62.3898 107.846 62.4334 107.971 58.1783 107.93C57.5322 107.906 57.3352 108.094 55.2084 108.597C54.2812 108.816 53.3287 108.884 52.3936 109.051C53.3538 108.541 54.029 107.613 55.022 107.168C62.0634 105.259 63.7128 106.401 67.7443 106.388C72.1379 106.49 81.2785 114.757 82.7175 114.883C83.5276 115.218 86.2682 115.376 86.3797 115.375C86.6288 115.47 86.9108 115.499 87.1552 115.364C90.5417 115.063 89.8998 114.911 90.8879 112.947C91.1558 112.516 90.9207 112.011 90.8064 111.572C90.9048 110.038 89.1148 108.978 88.3409 107.883C77.5895 95.6676 80.8878 99.6855 79.4343 96.8948C69.0711 76.3689 74.7296 86.1134 72.5327 80.7695C72.4193 80.5448 72.3025 80.3778 68.5134 78.6732C70.1283 78.7328 71.5819 79.5725 73.175 79.734C74.3595 78.2785 75.1994 75.0575 76.3971 73.8194C75.8334 79.0193 74.8668 81.7169 78.2047 89.0015C78.2987 89.6282 78.5227 90.2268 78.85 90.7704C79.4869 94.3632 81.0471 95.2941 84.5031 100.447C84.8257 100.901 91.8029 106.51 91.9012 106.554C101.216 107.546 95.3688 107.224 100.281 106.216C100.674 106.095 101.143 106.118 101.447 105.8C103.268 104.054 103.021 104.146 103.012 102.328C102.619 98.5763 103.797 101.388 101.306 92.4405C101.185 91.6116 102.141 88.098 102.405 85.7316C103.083 84.7292 107.866 77.2829 108.359 76.3905C110.506 69.282 112.222 62.59 105.8 58.9287C101.014 56.6838 102.919 56.769 95.3474 56.87C93.1892 53.1331 88.87 48.026 88.7591 47.9143C88.272 47.7876 82.89 46.8541 81.7761 47.5884C76.7215 51.0675 77.8788 48.9358 76.4127 53.6628C76.1432 54.4791 75.8582 55.2938 75.6577 56.132C75.4255 54.7771 76.1408 50.7827 76.0665 49.6754C76.1934 49.3118 76.2247 48.8795 76.5443 48.6194C77.8081 47.5266 80.4258 45.7626 81.1964 44.7949C82.5198 44.4565 85.4496 45.4639 87.4746 45.4953C88.2092 45.7318 88.9971 45.677 89.7427 45.8619C90.7358 46.4463 91.5316 47.2986 92.4024 48.0429C97.6585 51.9336 92.1219 51.209 109.896 56.5646C110.972 56.9126 110.938 57.6324 112.636 58.8944C115.108 55.9085 118.902 50.4936 125.742 50.4322C125.397 49.7617 125.879 49.0205 125.889 48.3202C126.199 47.4428 126.374 46.5262 126.509 45.6081C126.78 44.9892 126.982 44.3437 127.269 43.7327C132.519 34.3039 128.63 39.267 132.697 34.7551C134.391 33.11 135.984 31.3583 137.761 29.7979C131.142 39.4877 131.301 41.5599 129.033 50.2631C129.752 50.1722 130.478 50.2129 131.202 50.191C130.43 50.4182 129.665 50.6673 128.882 50.8444C128.851 51.0136 128.821 51.1844 128.793 51.3552C128.571 51.3207 128.35 51.2831 128.129 51.2643C128.134 50.9384 127.371 50.9118 127.329 51.211C127.033 51.2 126.74 51.2532 126.469 51.3599C125.492 51.4405 122.28 52.2896 121.444 52.6493C117.004 56.2731 116.978 58.1171 114.017 62.5827C113.849 62.834 113.901 62.5982 113.906 68.6446C113.935 69.4341 112.23 74.0234 112.025 74.5513C110.501 78.2878 113.311 73.456 107.078 82.299C106.635 82.9524 105.985 83.4725 105.726 84.2402C105.275 85.3823 104.503 86.4086 104.296 87.637C104.291 87.7486 104.122 92.9928 104.506 93.7177C105.212 98.2805 105.756 98.4792 106.466 99.4724C106.961 100.019 107.279 100.74 107.902 101.163C111.437 101.42 111.51 101.05 111.906 100.604C112.412 100.013 113.023 99.5178 113.478 98.8833C114.405 97.7052 115.753 95.164 116.285 94.6421C116.397 94.5372 120.244 91.6453 120.941 91.3064C127.787 87.8823 126.268 85.9444 130.29 77.4702C133.613 71.2455 133.641 67.9346 142.391 58.8803C141.861 60.2058 140.87 61.2649 140.262 62.545C139.562 63.3031 135.395 70.5553 134.686 71.3754C132.794 75.7245 130.383 87.0631 125.131 92.3702C123.179 93.2617 121.233 94.1705 119.343 95.1873L117.61 98.0074V97.8649C117.519 98.9053 117.537 99.9597 117.598 101.002V100.864C117.892 101.21 118.232 101.516 118.544 101.848C124.435 101.455 116.519 102.959 131.119 98.5104C132.958 97.9789 139.272 94.1522 141.073 93.4277C141.097 93.4062 144.77 89.3512 144.922 89.1254C145.079 88.9016 148.529 82.5225 149.073 82.0421C148.374 84.3243 145.055 93.4435 145.055 93.4435L145.007 93.3008C145.031 94.3942 143.756 93.9007 151.515 94.9773C151.645 94.9037 151.77 94.819 151.893 94.7266C153.759 92.3384 157.36 90.8009 158.54 88.0208C163.004 80.9468 166.159 71.3091 167.55 63.153C167.655 62.8458 170.872 59.0428 171.606 58.3117C174.182 56.9418 187.588 49.7374 189.478 47.5229C193.094 41.6455 191.762 37.7538 192.418 35.9256C192.39 35.8708 192.334 35.7611 192.306 35.7063C191.972 33.5796 192.036 31.7088 191.764 30.8446C191.782 30.7145 191.818 30.4545 191.837 30.3244C192.268 31.3019 194.128 41.2134 194.155 41.3279C194.395 41.2593 205.396 40.172 207.656 40.7153L217.042 41.5159C217.041 41.8339 217.639 41.7666 217.861 41.6772C218.123 41.8275 224.621 43.45 224.733 43.4681L224.716 43.5903C224.788 43.5856 224.93 43.5763 225.003 43.5715C225.063 35.8286 222.816 33.5659 222.542 30.9542C222.568 30.9872 225.602 35.7127 227.006 37.671C227.106 39.2464 228.062 43.1215 228.264 43.6044C231.594 46.9454 234.515 49.2382 234.907 49.9247C234.808 50.083 234.962 50.2945 235.077 50.4104C235.243 50.4151 235.345 50.1409 235.284 50.0046L235.4 50.0359C235.85 49.0034 236.649 48.0931 236.888 46.9902C237.23 46.951 237.103 46.2898 237.053 46.0234C237.306 45.2996 237.391 44.499 237.519 43.736L237.696 43.7344C237.684 42.4794 237.72 41.2245 237.681 39.971L237.715 39.8614C237.763 40.0773 239.766 45.2577 239.998 45.8089C240.109 45.8664 244.448 47.2371 244.921 47.1532C244.883 47.4461 245.419 47.4541 245.588 47.3068C245.588 47.3068 246.374 47.5291 249.712 49.2746C250.054 49.4391 250.387 49.6898 250.792 49.6506C243.937 40.2157 243.042 39.7323 228.679 31.2723C224.679 30.5819 226.81 29.2963 214.266 28.8407C214.503 28.7389 214.752 28.6589 214.996 28.5665C215.709 28.5276 220.456 28.0411 222.246 27.5466C222.513 27.6296 223.179 27.7581 223.257 27.4243C224.484 27.7626 224.943 28.2641 226.509 28.6887C226.509 28.6887 224.086 26.6903 222.675 25.3812C221.312 24.4347 220.923 23.062 217.492 23.0483L217.485 22.9167C216.544 22.8838 215.634 22.6018 214.697 22.5375C214.385 22.3762 214.027 22.4153 213.695 22.4388C213.679 22.1348 213.095 22.1991 212.885 22.2915C212.833 22.2477 212.728 22.1584 212.676 22.1144C212.396 22.116 212.12 22.1222 211.848 22.1176L211.846 21.9766C209.644 21.8341 207.501 21.0318 205.28 21.1823C204.187 21.4495 197.912 22.5305 196.494 22.594L196.488 22.7413C196.164 22.7506 195.824 22.7084 195.526 22.8541C194.335 22.9275 190.881 23.5397 190.855 23.5388L190.853 23.6955C190.742 23.6983 182 27.242 174.071 32.894C173.959 32.9924 171.396 38.7213 170.99 39.8427C170.746 40.6355 169.784 40.8376 169.435 41.5411C168.771 41.8801 165.656 44.3521 165.168 45.0287C163.937 45.7029 157.129 50.1066 157.129 50.1066C157.017 50.1591 148.337 54.7031 147.962 55.0294C147.624 55.1188 147.292 55.2253 146.957 55.313C148.162 54.2562 157.796 47.1592 159.167 46.1912C163.898 42.5321 159.31 46.7856 169.129 37.0381C169.394 36.7734 169.651 36.485 169.765 36.1184C171.823 30.6223 171.948 33.6883 172.627 26.1412C172.957 27.4934 173.138 28.8784 173.382 30.2477C174.865 29.4926 179.544 25.6043 183.371 22.6504C184.067 22.5423 186.795 21.7294 186.938 21.6743C187.387 21.6367 187.835 21.5396 188.242 21.3358C188.65 21.2747 189.06 21.1995 189.447 21.0475C189.893 21.0068 190.338 20.9081 190.749 20.7153C191.106 20.6636 191.46 20.5727 191.793 20.4286C192.241 20.3864 192.686 20.2844 193.095 20.087C195.089 19.7188 197.03 19.0969 198.972 18.525C199.429 18.818 199.173 17.914 198.873 18.2994C198.66 17.8216 198.234 17.4909 197.863 17.1415C187.182 8.45322 201.775 16.6862 167.426 7.79415C165.631 7.45258 163.894 6.85094 162.083 6.58308C161.543 6.34019 158.879 5.69651 157.969 5.61321C157.612 5.46946 150.18 5.84372 149.637 5.91877C139.619 7.18817 140.328 4.64546 135.098 3.45892C134.177 2.96646 126.439 2.17903 126.327 2.16788C125.767 1.92321 125.151 2.08302 124.581 2.19275ZM113.356 10.0626C113.845 9.82288 113.392 10.5656 113.356 10.0626ZM113.785 10.2178C114.251 9.97956 113.809 10.7332 113.785 10.2178ZM226.604 28.7229C226.699 28.8216 226.699 28.8216 226.604 28.7229ZM49.5208 32.2481C46.67 33.6128 43.9005 35.1545 40.9933 36.4017C40.7459 36.5016 25.8565 49.5234 25.7444 49.6347C25.4171 49.7789 25.1585 50.0248 24.9456 50.3052C22.5257 51.9254 22.8258 51.9225 22.1324 53.4247C21.1959 55.8337 20.5853 55.1615 20.9747 58.9414C32.6404 55.294 30.7112 56.4217 33.0016 51.6057C35.1057 46.3986 40.9883 39.4344 41.0999 39.3378C47.9634 34.685 49.5705 34.3383 54.7698 31.8847C50.5749 31.6733 50.2363 31.9517 49.5208 32.2481ZM205.861 42.5951C204.159 42.755 202.47 43.0417 200.763 43.1466C200.164 43.3471 199.484 43.1137 198.927 43.4113C196.195 43.407 196.403 43.5767 192.497 48.3482C184.781 53.9504 190.5 50.9574 180.611 55.2593C177.539 56.4405 180.021 55.2916 173.993 59.9205C171.282 62.5197 173.148 59.6485 169.604 66.4993C169.24 67.1543 169.095 67.9015 168.728 68.5549L168.756 68.4155C167.24 72.2521 167.161 80.013 159.353 94.8126C160.045 94.8773 167.623 93.5918 170.963 91.6744C171.19 91.5563 177.307 88.5077 177.5 88.345C178.378 87.6433 180.865 85.9468 181.186 85.7974C181.035 86.1907 176.669 90.9 176.363 91.2858C175.614 91.8256 172.273 93.0132 171.399 93.7473C171.208 93.6079 170.979 93.8553 170.88 94.0011C170.744 94.2282 171.131 94.2784 171.241 94.1405L171.195 94.2485C174.94 95.1101 174.189 95.7295 176.493 95.5505C176.537 95.8498 177.13 95.8388 177.339 95.6758C178.709 96.2148 198.54 98.4897 203.092 96.8853C204.684 96.6863 209.708 95.2912 210.203 95.2089C211.654 94.3346 212.91 93.1689 214.382 92.3308C214.973 91.796 216.237 89.7587 216.842 89.3821C216.792 89.708 216.71 90.0293 216.685 90.3598C216.502 90.8267 216.436 91.3297 216.353 91.8216C216.187 92.149 216.06 92.5016 216.047 92.8728C215.845 93.2676 215.728 93.6985 215.745 94.145C215.522 94.2782 209.241 100.132 205.678 101.935C223.856 109.229 227.686 115.445 231.807 119.702C231.624 119.647 231.442 119.596 231.265 119.546C231.169 119.291 221.506 111.25 221.004 111.262C207.743 103.795 191.745 99.9253 189.535 98.9551C187.829 98.748 179.649 96.9469 177.564 96.6597C177.362 96.619 161.845 95.9161 161.706 95.9829C161.492 95.7949 161.344 95.831 161.263 96.0863C160.38 95.9892 157.604 96.4395 157.474 96.489C157.033 96.4966 153.966 96.8383 153.661 96.9873C153.147 96.983 145.357 97.8401 145.199 97.9445C141.629 98.0442 125.206 101.898 120.301 103.046C90.5614 112.72 87.1695 117.745 74.1178 127.825C71.1413 129.895 71.7826 129.277 65.4744 139.392C64.7024 140.506 63.5099 145.914 63.413 146.413C63.1436 148.425 63.7983 150.394 63.8876 152.392C63.8934 152.4 65.8203 155.46 65.8284 155.467C69.3295 157.864 69.2411 156.643 73.4568 157.064C72.6952 157.638 71.0381 160.432 70.0561 161.075C70.4822 161.651 70.7155 162.355 71.1824 162.9C73.5403 167.683 79.8398 172.047 84.5626 174.489C104.741 179.56 100.949 179.063 109.598 176.839C101.961 170.639 101.323 170.493 100.592 169.523C105.399 172.087 105.312 173.792 116.729 174.923C117.609 175.151 124.869 173.589 124.98 173.527C134.113 170.491 131.317 171.627 133.389 172.033C134.889 172.656 136.531 172.877 138.147 172.824C138.617 173.148 139.23 172.951 139.766 173.028C140.177 173.208 140.655 173.206 141.069 173.029C141.501 172.987 141.979 173.086 142.367 172.843C146.185 172.985 146.154 172.29 153.158 167.713C154.874 168.211 157.525 169.349 158.045 169.383C158.392 169.625 165.36 170.058 165.608 170.054C167.245 169.459 168.17 169.425 174.718 166.876C175.36 166.585 177.584 166.658 178.189 166.447C184.407 166.139 183.403 166.122 189.416 164.337C196.059 162.243 191.957 165.145 199.553 156.424C199.564 156.509 199.586 156.681 199.599 156.767C199.564 156.842 199.15 159.829 199.008 163.091C199.937 163.083 200.832 163.374 201.751 163.465C203.658 163.991 205.045 163.228 207.583 163.08C214.888 160.473 216.281 158.819 218.071 156.811C221.913 152.377 219.171 157.685 225.739 147.244C234.893 132.703 231.245 137.049 234.595 129.802C234.477 129.79 223.696 128.343 222.52 128.155C221.873 128.002 196.783 126.122 194.538 127.719C191.48 127.716 181.276 129.626 179.234 129.806C178.691 129.756 178.167 129.554 177.616 129.585C177.226 129.332 176.742 129.433 176.307 129.396C170.296 128.081 174.799 130.008 166.418 125.83C165.985 125.529 150.119 127.163 149.739 127.398C149.39 127.397 149.028 127.381 148.701 127.513C148.06 127.607 147.339 127.367 146.763 127.718C145.084 127.594 135.145 128.465 130.17 130.03C114.304 130.181 101.815 133.341 89.0411 139.461C83.9906 142.307 89.9528 137.299 80.4901 147.675C79.9231 149.928 79.3796 152.191 78.7468 154.428C78.6308 152.238 78.7343 150.043 78.6685 147.851C78.2383 148.496 74.9987 152.894 74.2779 153.161C75.2305 151.922 78.4476 146.873 78.6105 146.544C75.8118 146.299 78.2889 147.279 72.5595 144.2C72.3151 143.384 72.1256 142.494 72.1302 141.626C73.7343 142.026 75.3508 142.397 76.9517 142.795C77.9933 142.715 79.0538 142.562 80.0531 142.276C80.31 142.358 80.9883 142.452 81.0054 142.096C81.502 142.008 81.8435 141.554 82.2602 141.294C92.2029 134.217 82.9809 139.269 100.767 132.08C101.528 131.916 116.237 128.048 118.372 127.337C117.037 124.688 116.691 124.668 115.545 118.64C115.89 117.568 117.643 114.163 117.963 113.69C118.137 115.737 117.976 117.795 118.056 119.845C118.566 120.88 118.657 122.065 119.194 123.093C119.239 123.133 123.26 125.818 123.768 126.034C124.786 126.392 129.967 126.805 130.438 126.659C133.472 125.966 136.512 125.286 139.514 124.46C140.748 124.229 151.639 125.502 153.334 124.257C154.327 124.282 164.733 123.218 165.45 123.127C165.857 122.237 167.227 116.883 167.255 116.771C168.938 116.193 170.525 115.347 172.228 114.815C171.393 116.307 170.259 117.6 169.297 119.005C169.183 120.393 168.985 121.786 168.614 123.134C174.483 128.167 176.834 127.064 187.411 125.827C209.393 123.533 221.999 125.514 223.048 125.509C223.176 125.594 230.901 126.511 232.196 126.427L232.193 126.627C232.713 126.627 233.234 126.621 233.756 126.649C233.997 126.751 234.265 126.75 234.528 126.775C234.487 126.663 233.405 123.572 233.322 123.101C234.517 124.101 235.139 124.468 236.449 125.554C240.442 121.596 250.493 118.708 252.482 117.13C252.482 117.13 256.538 108.037 256.66 107.806C257.271 107.793 257.883 107.79 258.497 107.801C258.496 107.805 255.568 117.836 255.482 118.065C253.704 119.076 251.765 119.751 249.962 120.714C239.063 126.049 241.598 124.662 240.38 126.483C232.438 139.104 234.898 134.676 231.984 145.506C231.619 147.223 231.683 145.912 232.602 148.94C233.014 149.676 231.847 149.512 239.542 149.501C239.611 149.578 250.5 159.256 250.777 159.43C259.184 160.884 255.359 161.259 258.283 159.907C260.096 159.024 269.038 148.734 268.873 135.759C269.807 133.741 267.784 128.976 267.383 127.536C264.627 129.073 261.973 130.8 259.105 132.127C267.982 124.814 264.576 128.968 268.42 123.494C268.831 122.662 268.718 121.72 268.726 120.826C268.812 120.536 268.884 120.238 268.897 119.936C269.135 119.261 269.023 118.535 269.023 117.836L268.815 117.847C267.946 112.539 268.304 118.089 267.44 109.228C267.36 108.093 267.692 106.975 267.607 105.84C267.904 105.283 267.759 104.638 267.767 104.039C268.044 102.909 268.088 103.221 266.83 101.946C266.451 101.296 265.268 100.272 264.738 100.298C264.935 99.8968 264.028 99.8796 264.23 100.282L264.116 100.273C263.706 100.893 263.254 101.492 262.714 102.006C259.696 102.021 256.677 102.009 253.659 102.012L253.688 102.183H253.552C252.75 104.27 249.965 109.466 249.628 110.186C249.516 110.273 242.029 114.899 241.713 115.041C241.872 114.748 246.771 109.434 246.884 109.327C247.313 108.611 248.15 108.187 248.383 107.353C249.05 105.591 250.742 102.209 250.672 101.515C250.986 101.515 250.925 100.92 250.833 100.705C251.099 100.345 250.835 100.663 251.309 97.94C250.788 97.022 247.754 93.5328 247.033 93.0187L247.164 93.0438C246.958 92.9792 245.03 92.4485 244.484 92.4233C243.609 92.1162 242.68 92.0269 241.784 91.8075C241.799 90.8914 242.322 90.0676 242.24 88.862C242.316 88.8166 242.468 88.7257 242.544 88.6802C249.456 92.6632 249.461 90.3171 254.528 97.7503C255.239 97.8772 255.943 98.0464 256.649 98.2046C257.237 98.0846 261.635 96.5882 262.175 95.6383C262.605 94.9833 263.613 94.764 263.743 93.9258C263.926 93.4228 264.028 89.4689 264.039 89.357C264.249 88.84 264.151 88.2649 264.168 87.7229C264.445 87.6993 264.445 86.8861 264.174 86.8501C264.169 86.7812 264.158 86.6401 264.154 86.5697C260.653 77.1022 260.585 77.8995 259.622 77.2599C257.714 76.0424 256.03 74.5071 254.119 73.2959C251.339 76.0286 243.292 86.1427 243.048 86.532C242.266 86.8406 241.436 87.0772 240.656 87.4063C240.257 87.4376 239.873 87.5536 239.52 87.7321C238.84 87.8606 238.23 88.1959 237.581 88.4153C237.37 89.3694 236.93 90.2406 236.497 91.1101C236.38 91.6929 236.417 92.3055 236.467 92.8963C236.727 93.5339 236.942 94.1889 237.085 94.8657C237.064 94.8561 232.908 93.0312 232.854 93.0137C232.785 91.8026 232.848 90.5883 232.829 89.3757C232.94 89.2805 235.497 86.9601 235.842 86.3784C236.098 86.344 236.373 86.3533 236.615 86.2327C241.735 85.6111 241.472 84.9047 244.86 81.6107C245.853 80.6408 246.298 79.2935 247.039 78.1497C249.664 73.9422 249.396 72.9514 250.684 69.7486C250.476 69.2817 250.353 68.7834 250.342 68.2727L250.274 68.1614C249.303 63.4365 250.244 65.304 244.052 60.2444C235.574 57.0815 241.033 55.7428 232.598 58.2108C223.817 64.3659 231.757 59.1996 223.57 68.6174C217.014 78.2327 221.918 70.0195 217.479 80.7082C217.228 81.3014 218.187 83.5896 218.234 83.7023C218.261 84.2021 218.369 84.6972 218.56 85.1625C218.563 85.2408 218.57 85.3959 218.573 85.4743C218.073 85.0413 215.637 81.8242 215.488 81.443C215.404 80.0046 214.865 78.6071 214.993 77.1578C215.295 76.7363 219.624 68.4855 223.776 64.4403C223.881 64.2083 224.81 61.2089 224.887 60.6659C225.225 60.0031 225.296 59.2463 225.576 58.5632C225.682 58.0691 230.261 56.0381 232.07 54.828C231.845 54.4507 227.077 47.7915 226.369 47.5378C226.257 47.4895 220.187 44.7665 219.83 44.5202C219.691 44.4199 219.539 44.376 219.373 44.3901L219.368 44.199C218.853 44.1974 218.339 44.2068 217.827 44.1692C217.74 44.1351 212.592 43.3358 211.383 43.2605L211.38 43.1178C209.968 43.0552 208.585 42.7073 207.176 42.5929C206.764 42.4118 206.27 42.4196 205.861 42.5951ZM238.203 50.1956C237.51 50.9257 236.732 51.5807 236.096 52.3609C236.403 53.1161 236.755 53.8729 237.239 54.5356C238.627 54.4886 240.006 54.7033 241.375 54.9117C244.206 56.8069 250.15 60.2544 250.15 60.2544C250.634 60.8611 253.217 65.2387 253.63 66.0013C253.947 67.579 254.109 69.1912 254.335 70.7878C254.402 70.8098 254.539 70.8521 254.606 70.8725L254.625 70.9587C256.124 71.5415 257.424 72.5224 258.925 73.1036C259.998 73.9653 261.122 74.7612 262.209 75.6088C262.53 74.65 262.599 73.6081 263.069 72.7025C254.505 55.5089 258.755 63.0224 255.997 59.4209C255.535 58.7566 254.871 58.263 254.459 57.5611C254.247 57.3888 254.022 57.2337 253.779 57.1208C254.239 58.6191 255.279 61.8031 255.499 63.3989C254.911 62.684 250.22 53.9279 250.164 53.8149C245.417 49.5044 243.927 49.98 240.048 48.4064C239.374 48.9375 238.825 49.608 238.203 50.1956ZM250.725 49.7162C250.82 49.8149 250.82 49.8149 250.725 49.7162ZM25.0426 59.9926C24.5177 59.9674 20.8503 61.0256 20.4985 61.1834C14.8073 63.7482 16.5657 62.8038 12.6289 67.4208C11.9523 68.2111 11.7496 67.8911 9.9363 71.3048C8.43341 74.1064 8.59251 73.1219 8.55315 74.7502C8.59028 76.0854 8.08511 79.7498 9.68411 82.0655C17.4287 81.7937 14.1252 79.1289 16.758 77.6127C15.5775 75.2265 16.0965 75.1676 15.5581 72.8873C15.4939 72.5301 15.3388 72.1196 15.6067 71.8078C18.5434 67.2626 17.4171 67.1619 21.2834 64.1697C21.511 63.9984 24.967 60.7846 25.5095 60.129C26.0827 59.9801 25.0865 59.5524 25.0426 59.9926ZM260.524 62.7721C265.011 72.2324 268.049 72.457 264.643 78.8081C267.356 85.9927 266.355 86.729 267.425 89.8163C267.451 90.2643 267.421 90.7203 267.554 91.1574L267.588 90.996C267.542 91.3183 267.633 90.7802 266.872 94.504C267.002 95.1543 268.431 98.2792 269.233 100.621L269.314 100.594C269.424 100.997 269.562 101.393 269.741 101.772C269.821 101.312 269.897 100.849 269.946 100.384C270.172 100.131 271.346 95.5013 271.529 92.9231L271.357 92.9247C271.432 90.9217 270.393 83.7026 270.077 79.886L270.002 79.7466C269.607 73.597 268.492 71.632 265.607 66.2613C264.411 65.2658 261.541 63.3339 261.014 63.1247C261.044 62.8739 260.665 62.8896 260.524 62.7721ZM19.6134 79.5773C16.4026 80.8193 17.7081 80.4338 16.9302 83.9486C16.9023 84.0619 16.5398 92.7033 15.0411 95.0555C13.363 97.7609 11.8501 101.82 12.3015 105.111C12.9686 109.257 12.1318 106.959 14.4944 110.147C14.9287 110.778 19.4312 114.265 20.4294 114.559C24.3458 115.933 25.3349 116.589 27.1117 117.113C41.6475 121.343 34.9006 120.788 44.2262 120.788C41.4912 118.606 42.1859 117.944 39.0164 116.805C29.9466 114.074 30.4136 114.741 23.3289 109.614C22.5567 108.885 22.1681 107.869 21.5118 107.049C19.9539 104.638 21.3569 107.954 17.9686 100.278C17.8418 98.6027 18.3539 96.9748 18.459 95.3156C19.1059 94.6686 19.7199 93.9855 20.417 93.3916C19.9558 97.9021 18.4151 100.946 24.7558 108.5C27.0525 111.558 44.0991 115.729 45.9304 117.717C52.2891 124.408 60.7635 126.718 69.9072 127.152C71.8444 127.262 70.6477 127.063 73.358 124.874L77.1925 122.122C78.6685 120.24 79.0482 116.591 79.1364 116.14C78.5851 115.811 78.0446 115.468 77.4902 115.146C77.0465 116.6 76.7108 119.527 75.8408 120.143C72.1718 122.925 73.305 122.53 71.7446 122.783C71.0617 122.853 65.7917 123.355 64.6097 123.164C55.4929 122.811 57.5946 122.929 54.1398 120.793C49.0947 117.753 50.4959 118.155 48.4585 115.975C48.0074 115.339 47.3557 114.875 46.9187 114.231C46.477 113.274 46.1073 112.282 45.6342 111.339C45.4933 111.353 45.3538 111.367 45.2144 111.384C45.1972 111.338 41.7026 102.661 41.7026 102.661C36.3821 102.054 28.2158 103.045 25.6407 87.2781C25.8225 84.7353 25.9478 82.1861 26.2078 79.6495C24.5296 80.2519 21.7356 78.8122 19.6134 79.5773ZM12.8811 84.2448C11.6092 84.9702 10.1399 85.2851 8.92753 86.1201L6.17695 91.0492C3.79429 95.8937 4.77195 94.9657 3.33863 98.3645C3.07707 98.9812 3.09279 105.056 3.30262 105.832C3.90823 109.859 3.21242 108.939 5.7117 113.247C5.60835 113.402 5.78529 113.7 5.9795 113.662C6.1095 113.586 6.25678 113.393 6.17216 113.244C6.81925 112.24 6.89005 111.119 9.03713 109.105C9.06924 99.6792 8.81381 103.894 10.2856 99.0821C10.6787 97.5288 13.0816 93.2913 13.2288 93.0861C14.1604 91.7311 13.3944 93.0091 14.07 84.1194C13.669 84.11 13.2648 84.121 12.8811 84.2448ZM273.735 88.4328C273.675 88.848 273.685 89.2945 273.956 89.6423C273.777 90.7798 273.914 91.9408 273.874 93.0876L274.036 93.0923C274.125 94.8402 273.377 98.9973 272.164 101.551C271.135 104.041 270.227 105.127 270.311 105.752C272.244 123.076 272.015 112.311 270.644 125.876C270.547 127.119 269.97 127.111 271.653 131.636C271.811 136.902 271.373 139.564 271.373 139.564C273.643 136.047 274.806 126.929 274.368 125.819C274.282 124.815 274.546 123.759 274.199 122.794C274.158 122.027 274.272 121.238 274.05 120.495C274.034 119.951 274.147 119.367 273.863 118.872C273.95 115.085 275.08 101.367 274.919 98.7201C275.043 98.5274 275.051 98.2376 274.954 98.037C274.993 97.9916 275.071 97.8992 275.109 97.8537C275.033 97.6401 274.491 91.1454 274.394 91.0225C274.299 90.5996 274.266 90.1404 274.039 89.766C274.034 89.3038 273.89 88.8589 273.735 88.4328ZM277.981 99.7778C275.745 108.417 278.189 126.036 277.14 129.399C275.882 136.134 277.72 136.08 262.454 160.309C261.437 161.901 261.868 161.887 259.171 163.173C259.131 164.188 259.232 165.209 259.105 166.22C258.043 171.143 258.423 172.144 257.852 172.78C253.634 177.327 257.422 175.583 248.701 177.423C248.088 177.562 247.462 177.538 246.841 177.545C245.639 176.919 241.227 177.81 238.898 176.174C238.373 175.79 233.853 172.539 232.283 171.671C231.202 171.436 230.089 171.287 228.983 171.265C228.428 170.989 227.797 171.105 227.205 171.088C215.649 166.586 225.638 171.82 214.531 163.738C212.656 164.847 210.643 165.704 208.723 166.731C210.537 170.08 207.538 167.298 213.867 172.379C214.782 172.963 215.797 173.369 216.755 173.877C219.373 175.056 218.762 175.647 221.971 175.671C222.729 175.944 226.487 175.867 227.271 176.047C227.888 176.141 235.069 178.274 239.524 181.183C239.91 181.462 246.062 182.57 246.564 182.566C247.143 182.801 247.82 182.811 248.398 182.559C259.857 179.467 254.829 182.051 262.723 176.404C263.747 175.699 264.678 174.852 265.779 174.259C265.01 175.594 263.871 176.661 262.945 177.882C261.444 179.643 262.041 180.538 252.989 184.389C255.187 184.426 257.391 184.443 259.585 184.384C267.154 180.533 268.725 177.138 270.545 175.456C270.642 175.366 275.979 167.982 276.211 167.555C276.534 167.224 276.966 166.817 276.811 166.308C277.232 163.734 277.392 161.114 277.956 158.56C274.031 163.707 270.298 167.881 270.298 167.881C271.099 166.329 275.664 158.339 277.12 154.952L277.32 154.98C277.32 154.907 277.33 143.417 277.342 143.345C278.379 144.732 278.777 146.501 279.891 147.832C280.224 146.44 282.317 136.575 282.347 135.235C282.313 122.979 282.429 123.565 282.198 122.952C282.155 120.384 281.471 115.734 281.388 115.585C281.122 107.415 279.323 103.568 277.981 99.7778ZM11.5293 112.834C11.0076 114.096 10.8213 115.461 10.4203 116.763C10.1715 117.318 11.6524 121.228 12.0823 121.96C22.3246 128.517 17.5263 121.669 43.7752 129.133C47.8813 130.656 55.3212 136.752 55.3212 136.752C55.6469 137.131 56.1811 136.978 56.6166 136.993C56.9565 137.072 57.3074 137.098 57.6567 137.123C59.5415 137.862 61.6612 137.2 63.4868 136.326C63.3432 136.09 59.2934 129.545 58.4477 129.172C58.3833 129.141 46.8268 123.436 46.7577 123.455C36.7566 124.878 38.5246 124.402 36.3036 124.097C35.854 123.86 35.3481 123.762 34.8437 123.76C33.9227 123.414 32.939 123.301 31.9945 123.046C23.69 121.238 23.8884 120.238 19.1782 118.624C15.3667 117.397 15.2043 116.371 14.5245 115.759C13.5202 114.789 12.5773 113.755 11.5293 112.834ZM7.34392 119.21C7.31404 119.631 7.1904 123.723 7.43947 124.263C9.52624 129.085 8.32114 127.926 10.4062 129.593C13.6184 132.14 13.8243 132.172 14.1609 132.252C18.1256 133.205 19.4559 134.586 24.471 134.964C43.8684 137.595 40.8483 139.025 57.7633 145.161C58.7689 145.214 59.7619 144.948 60.7613 144.87C61.0089 143.591 61.4678 142.356 61.6182 141.059C58.1673 141.016 59.9099 142.972 51.2438 136.53C43.3882 130.574 45.3553 132.022 38.224 129.979C34.939 129.132 27.3342 127.795 26.227 127.829C26.0045 127.753 25.7696 127.713 25.5362 127.696L25.3952 127.583C24.2368 127.347 17.6735 127.745 16.8913 127.352C16.7798 127.299 11.8649 124.955 11.6376 124.755C8.83121 122.27 8.43096 122.371 8.21823 121.761C7.90305 120.92 7.72455 120.028 7.34392 119.21ZM271.23 139.658C271.747 139.688 270.98 140.122 271.23 139.658ZM216.911 161.98C222.266 167.643 221.439 166.625 225.786 167.97C229.273 168.748 225.19 168.403 233.447 167.248C234.506 168.813 235.891 170.126 236.968 171.679C237.733 172.852 239.18 173.189 240.378 173.745C242.756 174.647 242.841 175.535 245.687 175.505L245.685 175.328C246.396 175.369 250.922 174.941 251.146 174.848C252.543 174.245 253.961 173.689 255.355 173.076C255.936 171.002 256.042 168.824 256.6 166.745C256.157 165.374 255.348 164.146 254.98 162.743C247.593 160.644 249.716 162.889 246.959 159.961C246.672 159.678 241.401 153.86 241.058 153.648C238.949 153.295 237.827 152.565 231.401 151.715C230.645 151.616 229.898 151.466 229.158 151.287C228.876 150.328 228.652 149.354 228.41 148.385C227.009 151.068 216.992 161.868 216.911 161.98Z" fill="#730505"/>
    <path id="Vector_2" d="M175.261 18.5922C174.185 18.7661 173.135 18.4104 172.07 18.3337C162.421 17.0332 167.315 17.4638 159.225 19.1374C158.422 19.3357 158.758 18.7949 154.959 23.5102C154.858 26.1873 155.112 28.4078 154.767 29.2509C153.326 32.7825 153.973 32.8069 152.611 33.9919C151.763 34.6891 151.01 35.5195 150.032 36.0413C150.33 34.3132 152.846 30.7307 151.746 27.3849C149.713 23.1367 151.182 24.0902 146.03 21.0394C141.557 18.2915 142.549 19.5439 135.939 18.7362C134.517 18.46 133.475 19.625 125.075 23.5008C124.331 22.8929 123.588 22.2615 122.769 21.7601C111.979 19.8783 106.547 24.0264 101.482 27.3457C99.2623 28.953 94.8064 30.088 90.1206 32.231C89.6809 32.3441 81.0002 33.6473 80.0236 33.4781C75.766 32.2587 75.2586 32.3662 73.2051 31.7327C95.0454 31.2105 93.1429 28.2216 101.676 24.0947C104.644 22.4784 109.468 19.6931 110.515 19.5228C118.976 17.9766 113.025 16.6975 124.22 18.133C125.352 18.2866 126.521 18.8131 127.639 18.285C129.312 17.7101 131.03 17.2056 132.595 16.3595C135.755 15.4276 146.662 16.9035 149.937 17.7821C154.575 18.9896 153.668 9.26854 175.261 18.5922Z" fill="#730505"/>
    <path id="Vector_3" d="M120.99 28.6587C118.054 42.6494 119.38 42.3526 120.365 46.7032C116.617 43.5757 117.278 43.5712 116.762 38.5591C116.735 38.3847 116.333 32.9325 120.99 28.6587Z" fill="#730505"/>
    <path id="Vector_4" d="M218.199 54.8348C214.975 56.8895 210.79 59.0151 206.315 62.6311C208.218 63.814 210.314 64.6429 212.253 65.7615C201.586 64.3259 205.624 64.1315 197.613 65.6879C194.038 66.4786 196.588 64.6278 187.02 72.1728C186.95 72.2844 182.39 79.1997 182.229 79.3799C182.761 75.6175 182.35 76.559 183.652 73.8116C185.703 69.7727 184.968 71.2284 187.608 68.8403C192.535 64.7471 192.484 64.9828 192.773 64.4486C209.893 61.6156 202.778 58.2778 218.199 54.8348Z" fill="#730505"/>
    <path id="Vector_5" d="M221.57 95.1714C222.301 96.8186 222.982 102.618 223.955 103.222L228.495 106.361C228.885 106.762 232.187 107.009 235.346 107.654C236.272 107.896 237.72 107.082 238.159 106.927C241.708 105.494 239.58 106.876 241.607 104.519C242.359 103.544 243.217 102.64 243.808 101.55C243.889 101.348 244.085 101.249 244.26 101.138C244.231 101.196 243.079 104.047 241.836 106.621C240.533 107.883 238.141 109.597 237.755 110.294L231.696 109.68C231.585 109.596 225.125 106.77 224.425 106.672C222.564 102.232 221.065 105.126 221.57 95.1714Z" fill="#730505"/>
    <path id="Vector_6" d="M198.498 107.217C199.854 107.773 206.274 109.48 208.022 109.915C208.134 109.967 223.256 117.299 224.649 118.106C224.537 118.076 203.67 110.383 201.808 110.186C201.808 110.186 192.975 109.801 188.816 109.708C188.528 109.695 179.498 110.767 179.063 110.8C179.803 109.88 180.912 109.322 181.546 108.304C183.911 108.316 187.507 106.582 198.498 107.217Z" fill="#730505"/>
    <path id="Vector_7" d="M141.019 135.784L149.579 142.208C161.477 147.114 158.383 145.481 163.038 146.132C166.114 146.634 167.202 146.671 172.839 144.829C173.891 144.793 171.89 141.819 171.387 139.121C172.515 139.819 172.351 139.968 178.083 144.567C179.456 145.116 184.134 145.477 187.339 146.259C189.621 146.682 190.373 146.038 198.813 145.686C221.979 139.183 212.418 141.129 222.721 137.556C222.609 137.667 214.515 144.234 213.64 144.702C213.529 144.768 208.643 147.604 208.371 147.889C207.752 149.349 206.065 152.511 206.065 152.511C205.934 151.089 205.432 147.941 205.416 147.829C205.305 147.839 191.801 150.397 183.664 148.536C183.552 148.51 175.384 146.665 174.438 146.599C172.421 147.515 169.696 149.072 169.25 149.029C160.05 149.052 160.454 149.06 159.977 148.885C158.928 148.549 152.043 146.99 147.779 144.785C137.147 150.59 130.222 149.656 124.283 149.65C122.332 149.244 120.475 148.462 118.596 147.812C117.101 146.787 115.602 145.753 114.189 144.616C124.172 147.397 124.934 149.132 138.102 146.226C138.901 146.007 139.755 145.913 140.47 145.465C142.186 144.324 144.108 143.528 145.744 142.261C144.233 140.056 142.532 137.987 141.019 135.784Z" fill="#730505"/>
    <path id="Vector_8" d="M117.595 152.324C111.715 156.464 110.97 156.159 111.155 156.649C111.98 157.244 115.645 159.105 116.224 159.431C119.499 160.175 121.097 161.761 129.297 161.853C146.657 161.797 150.703 158.783 162.572 155.356C163.266 155.213 163.862 154.72 164.602 154.809C159.916 157.069 148.281 162.083 139.448 164.337C130.853 165.044 118.446 165.739 110.811 161.714C107.892 160.25 105.947 157.637 105.037 157.81C100.67 158.613 95.6145 158.82 86.5676 165.347C84.0374 166.907 85.6839 165.955 81.0695 166.844C79.7319 166.579 78.4678 166.043 77.2178 165.517C85.4806 165.003 80.8713 166.318 85.0137 164.103C89.2354 161.669 87.511 161.857 93.5161 157.88C93.6287 157.814 97.7182 155.338 98.22 155.226C109.767 152.674 104.923 153.089 112.495 152.569C112.749 152.513 116.011 152.243 117.595 152.324Z" fill="#730505"/>
    </g>
</svg>