<svg width="198" height="270" viewBox="0 0 198 270" fill="none" xmlns="http://www.w3.org/2000/svg">
<path d="M137.97 107.412H148.97V98.9235C148.97 94.2695 145.249 90.4832 140.675 90.4832H134.61H62.8247H56.7602C52.1871 90.4832 48.4653 94.2695 48.4653 98.9235V107.411H59.4393H137.97V107.412Z" fill="#730505"/>
<path d="M69.8333 210.91H140.097C135.839 187.552 131.781 165.275 127.189 140.006H70.2227C67.5017 154.975 64.9689 168.894 62.4736 182.609C59.7801 197.412 57.1291 211.977 54.3325 227.369H143.099C142.342 223.219 141.598 219.133 140.859 215.082H69.8333C68.7013 215.082 67.783 214.147 67.783 212.995C67.783 211.844 68.7013 210.91 69.8333 210.91Z" fill="#730505"/>
<path d="M130.984 121.623C133.706 121.623 135.919 119.36 135.919 116.579V111.584H61.4883V116.579C61.4883 119.36 63.7136 121.623 66.4477 121.623H68.3292H129.083H130.984Z" fill="#730505"/>
<path d="M127.035 125.795H70.3818V135.833H127.035V125.795Z" fill="#730505"/>
<path d="M133.216 75.7466H114.976H82.4372H64.2192V86.312H133.216V75.7466Z" fill="#730505"/>
<path d="M112.924 68.5205H84.4849V71.5748H112.924V68.5205Z" fill="#730505"/>
<path d="M112.923 58.6077C111.253 59.3691 109.519 59.9771 107.744 60.4402C107.669 60.4599 107.592 60.4764 107.517 60.4955C107.087 60.6049 106.654 60.7099 106.218 60.8008C106.035 60.8403 105.848 60.8701 105.664 60.9058C105.321 60.9713 104.979 61.0387 104.635 61.0928C104.352 61.1373 104.064 61.171 103.778 61.2079C103.52 61.2416 103.264 61.281 103.004 61.3084C102.629 61.3478 102.251 61.3733 101.872 61.4C101.693 61.4121 101.515 61.4318 101.335 61.4413C100.774 61.4712 100.209 61.4865 99.6425 61.4865C99.0261 61.4865 98.4142 61.4649 97.806 61.4299C97.5922 61.4178 97.3797 61.3968 97.1671 61.3803C96.7771 61.3504 96.3889 61.316 96.0026 61.2721C95.7395 61.2429 95.4775 61.2072 95.2156 61.1704C94.8912 61.1252 94.5681 61.075 94.2468 61.0196C93.9523 60.9687 93.6579 60.9178 93.366 60.8593C93.1022 60.8065 92.8416 60.7455 92.5803 60.6863C91.2557 60.3867 89.9543 60.0038 88.6804 59.5364C88.6292 59.5179 88.5767 59.5007 88.526 59.4817C88.0835 59.3169 87.6465 59.1388 87.2121 58.9544C87.1402 58.9232 87.0683 58.8933 86.9958 58.8621C86.1457 58.4939 85.3043 58.1008 84.4849 57.6575V64.3481H112.924V58.6077H112.923Z" fill="#730505"/>
<path d="M93.9678 56.731C93.9703 56.7316 93.9722 56.7322 93.9741 56.7329C94.8586 56.9167 95.7581 57.0573 96.6701 57.1546C96.7613 57.1648 96.8538 57.1717 96.9451 57.1813C97.2895 57.2144 97.6352 57.2404 97.9827 57.2614C98.0996 57.2678 98.2159 57.2761 98.3334 57.2812C98.7685 57.3015 99.2048 57.3149 99.6442 57.3149C100.214 57.3149 100.782 57.292 101.349 57.2576C101.524 57.2474 101.698 57.2309 101.872 57.2169C102.268 57.1857 102.663 57.1457 103.057 57.0973C103.255 57.0725 103.453 57.049 103.65 57.0204C104.035 56.965 104.419 56.897 104.802 56.8257C105.143 56.7615 105.482 56.6915 105.819 56.6139C106.129 56.544 106.438 56.4734 106.746 56.3926C107.107 56.2965 107.465 56.1916 107.821 56.0816C107.929 56.0485 108.038 56.0148 108.145 55.9804C119.546 52.3098 127.833 41.4614 127.833 28.6819C127.833 12.8666 115.187 0 99.6448 0C84.1053 0 71.4624 12.8666 71.4624 28.6819C71.4618 42.4956 81.1399 54.0551 93.9678 56.731Z" fill="#730505"/>
<path d="M157.46 245.75H156.24H41.172H39.9475C33.3641 245.75 28.0078 251.19 28.0078 257.876V270H169.4V257.876C169.4 251.19 164.044 245.75 157.46 245.75Z" fill="#730505"/>
<path d="M43.2241 231.541V241.579H154.192V231.541H145.578H145.567H51.8702H43.2241Z" fill="#730505"/>
<path d="M141.224 141.885C141.625 142.291 142.149 142.494 142.672 142.494C143.198 142.494 143.723 142.289 144.123 141.88L158.57 127.135H195.363C196.496 127.135 197.413 126.201 197.413 125.048C197.413 123.897 196.495 122.962 195.363 122.962H157.718C157.174 122.962 156.651 123.183 156.267 123.575L141.219 138.934C140.42 139.751 140.422 141.072 141.224 141.885Z" fill="#730505"/>
<path d="M195.363 177.702H158.568L144.122 163.001C143.321 162.187 142.023 162.187 141.221 163.001C140.421 163.816 140.421 165.137 141.221 165.952L156.269 181.264C156.654 181.655 157.175 181.874 157.718 181.874H195.363C196.496 181.874 197.413 180.94 197.413 179.789C197.413 178.636 196.495 177.702 195.363 177.702Z" fill="#730505"/>
<path d="M2.05089 127.135H38.8394L53.2863 141.881C53.687 142.29 54.2121 142.494 54.7378 142.494C55.2616 142.494 55.7854 142.292 56.1854 141.886C56.9868 141.072 56.9893 139.752 56.1892 138.935L41.1416 123.577C40.7566 123.183 40.2346 122.963 39.6902 122.963H2.05027C0.918244 122.963 0 123.898 0 125.05C0.000625081 126.201 0.918868 127.135 2.05089 127.135Z" fill="#730505"/>
<path d="M2.04964 181.874H39.6896C40.2327 181.874 40.7547 181.654 41.1391 181.263L56.1873 165.951C56.9874 165.137 56.9874 163.816 56.1873 163.001C55.3866 162.187 54.0883 162.187 53.2876 163.001L38.8407 177.701H2.05027C0.918249 177.701 3.18947e-07 178.635 3.18947e-07 179.787C-0.000624763 180.94 0.917619 181.874 2.04964 181.874Z" fill="#730505"/>
<path d="M195.366 131.767H186.24C185.108 131.767 184.19 132.701 184.19 133.854V143.135C184.19 144.288 185.109 145.221 186.24 145.221H195.366C196.498 145.221 197.416 144.287 197.416 143.135V133.854C197.416 132.701 196.498 131.767 195.366 131.767ZM193.315 141.049H193.313V135.94H193.315V141.049Z" fill="#730505"/>
<path d="M195.366 185.788H186.24C185.108 185.788 184.19 186.721 184.19 187.873V197.156C184.19 198.308 185.109 199.242 186.24 199.242H195.366C196.498 199.242 197.416 198.308 197.416 197.156V187.873C197.416 186.721 196.498 185.788 195.366 185.788ZM193.315 195.069H193.313V189.959H193.315V195.069Z" fill="#730505"/>
<path d="M2.05027 145.221H11.1715C12.3035 145.221 13.2217 144.287 13.2217 143.135V133.854C13.2217 132.701 12.3035 131.767 11.1715 131.767H2.05027C0.918244 131.767 0 132.701 0 133.854V143.135C0 144.288 0.918244 145.221 2.05027 145.221ZM9.12119 135.94V141.049H9.11931V135.94H9.12119Z" fill="#730505"/>
<path d="M11.1715 185.788H2.05027C0.918244 185.788 0 186.721 0 187.873V197.156C0 198.308 0.918244 199.242 2.05027 199.242H11.1715C12.3035 199.242 13.2217 198.308 13.2217 197.156V187.873C13.2217 186.721 12.3035 185.788 11.1715 185.788ZM9.12119 195.069H9.11931V189.959H9.12119V195.069Z" fill="#730505"/>
</svg>
