<svg width="230" height="188" viewBox="0 0 230 188" fill="none" xmlns="http://www.w3.org/2000/svg">
<path fill-rule="evenodd" clip-rule="evenodd" d="M146.651 149.12H83.3475V155.666H146.651V149.12ZM216.927 145.572V22.6399C216.927 20.3903 216.08 18.3426 214.699 16.8434L214.616 16.7569C213.181 15.2423 211.199 14.3047 209.025 14.3047H20.974C18.786 14.3047 16.817 15.2423 15.3815 16.7569C13.946 18.2561 13.0705 20.347 13.0705 22.6399V145.572H81.6655H81.7065H148.291H148.332H216.927ZM203.05 26.4036H23.8035V133.474H203.05V26.4036ZM22.1225 22.8561H204.732C205.648 22.8561 206.413 23.6493 206.413 24.6296V135.247C206.413 136.228 205.648 137.021 204.732 137.021H22.1225C21.1925 137.021 20.4405 136.228 20.4405 135.247V24.6301C20.4405 23.6493 21.1925 22.8561 22.1225 22.8561ZM79.9845 149.12H0V158.247L59.8855 170.389H170.113L229.999 158.247V149.12H150.014V157.44C150.014 158.406 149.262 159.199 148.332 159.199H81.6655C80.7365 159.199 79.9845 158.406 79.9845 157.44V149.12ZM110.678 119.933V119.947C110.829 120.25 110.897 120.581 110.87 120.913V120.927V120.956V120.971V121L110.856 121.072V121.101L110.842 121.115V121.144V121.158C110.747 121.562 110.528 121.951 110.186 122.211L110.009 122.326L109.967 122.341V122.355L109.858 122.398L109.776 122.441L109.749 122.456L100.547 126.551C99.6995 126.926 98.715 126.508 98.3595 125.614C98.0045 124.705 98.401 123.682 99.248 123.307L103.651 121.346C95.7345 118.923 88.802 114.049 83.6475 107.56C77.714 100.09 74.1455 90.4432 74.1455 79.9448C74.1455 69.4327 77.714 59.785 83.6475 52.3157C89.677 44.7019 98.154 39.323 107.793 37.5205C108.709 37.3475 109.584 37.9956 109.734 38.9617C109.898 39.9136 109.283 40.837 108.367 41.0099C99.535 42.6684 91.755 47.6002 86.218 54.579C80.7765 61.4429 77.5085 70.2828 77.5085 79.9443C77.5085 89.5915 80.777 98.4314 86.218 105.295C91.113 111.467 97.744 116.024 105.331 118.158L102.118 113.501C101.572 112.722 101.736 111.612 102.488 111.034C103.24 110.457 104.292 110.646 104.826 111.424L110.568 119.744L110.678 119.933ZM119.346 38.6464V38.6322V38.6026V38.5889V38.5747L119.36 38.4882V38.4592L119.373 38.4444V38.4154V38.4017C119.456 37.9972 119.688 37.6086 120.03 37.3491L120.208 37.2331L120.249 37.2189V37.2046L120.358 37.1619L120.44 37.1182L120.468 37.1044L129.669 33.0091C130.517 32.6336 131.501 33.0518 131.857 33.9456C132.212 34.8543 131.815 35.8784 130.968 36.267L126.06 38.4444C134.1 40.8243 141.141 45.7418 146.35 52.3173C152.284 59.7865 155.853 69.4343 155.853 79.9464C155.853 90.4447 152.284 100.091 146.35 107.561C140.32 115.175 131.844 120.554 122.204 122.356C121.288 122.529 120.426 121.881 120.262 120.915C120.112 119.963 120.714 119.04 121.63 118.867C130.475 117.208 138.242 112.277 143.779 105.298C149.221 98.4335 152.502 89.5941 152.502 79.9469C152.502 70.286 149.221 61.4456 143.779 54.5817C139.007 48.5689 132.567 44.0691 125.212 41.8774L128.097 46.0593C128.644 46.8529 128.466 47.9487 127.728 48.5256C126.976 49.1026 125.924 48.9296 125.39 48.1359L119.648 39.8155C119.415 39.4675 119.32 39.0493 119.346 38.6464ZM125.226 85.7572C128.193 84.2864 130.558 82.2672 132.008 79.9453C130.558 77.6092 128.193 75.5905 125.226 74.1198C121.903 72.4613 117.829 71.4952 113.427 71.4952C109.01 71.4952 104.949 72.4613 101.627 74.1198C98.6465 75.5905 96.295 77.6092 94.8455 79.9453C96.295 82.2667 98.6465 84.2859 101.627 85.7572C104.949 87.4157 109.01 88.3818 113.427 88.3818C117.829 88.3812 121.903 87.4151 125.226 85.7572ZM135.426 80.7817C133.716 84.1277 130.627 86.9827 126.662 88.9587C122.902 90.8329 118.335 91.9292 113.427 91.9292C108.518 91.9292 103.952 90.8329 100.192 88.9587C96.2275 86.9827 93.1375 84.1277 91.4285 80.7817C91.1415 80.2338 91.1685 79.5994 91.4285 79.0947C93.1375 75.7492 96.228 72.8942 100.192 70.9188C103.952 69.0435 108.518 67.9483 113.427 67.9483C118.335 67.9483 122.902 69.0435 126.662 70.9188C130.628 72.8942 133.716 75.7492 135.426 79.0947C135.699 79.6426 135.685 80.277 135.426 80.7817ZM114.972 78.3158C114.576 77.8977 114.028 77.6382 113.427 77.6382C112.825 77.6382 112.279 77.8976 111.883 78.3016C111.486 78.7198 111.239 79.2967 111.239 79.9453C111.239 80.5797 111.485 81.1566 111.868 81.5606C112.278 81.9788 112.825 82.2382 113.427 82.2382C114.028 82.2382 114.575 81.9788 114.972 81.5748C115.368 81.1566 115.614 80.5797 115.614 79.9453C115.614 79.2967 115.369 78.7198 114.972 78.3158ZM113.427 74.0913C114.944 74.0913 116.339 74.7547 117.337 75.8073L117.391 75.8647C118.361 76.9173 118.964 78.3591 118.964 79.9453C118.964 81.5458 118.349 83.0029 117.35 84.0691L117.296 84.1272C116.284 85.1507 114.916 85.7857 113.427 85.7857C111.895 85.7857 110.514 85.1217 109.516 84.0691L109.461 84.0122C108.476 82.9591 107.876 81.5179 107.876 79.9453C107.876 78.3301 108.505 76.8741 109.502 75.8067L109.558 75.7492C110.569 74.7257 111.922 74.0913 113.427 74.0913ZM179.985 33.9019C182.008 31.782 184.797 30.4699 187.86 30.4699C190.936 30.4699 193.711 31.782 195.722 33.9019C197.746 36.0218 198.99 38.9633 198.99 42.2081C198.99 45.3811 197.786 48.2646 195.831 50.3845L195.722 50.5C193.711 52.6342 190.937 53.9462 187.86 53.9462C184.797 53.9462 182.022 52.6342 179.998 50.5143C177.975 48.3659 176.731 45.4381 176.731 42.2081C176.731 38.9628 177.975 36.0213 179.985 33.9019ZM17.46 179.69C16.53 179.69 15.778 178.897 15.778 177.917C15.778 176.937 16.53 176.143 17.46 176.143H159.271C160.2 176.143 160.952 176.937 160.952 177.917C160.952 178.897 160.2 179.69 159.271 179.69H17.46ZM100.506 187.318C99.577 187.318 98.825 186.525 98.825 185.544C98.825 184.565 99.5765 183.771 100.506 183.771H198.633C199.563 183.771 200.315 184.565 200.315 185.544C200.315 186.525 199.563 187.318 198.633 187.318H100.506ZM208.683 187.318C207.754 187.318 207.001 186.525 207.001 185.544C207.001 184.565 207.754 183.771 208.683 183.771H220.947C221.876 183.771 222.628 184.565 222.628 185.544C222.628 186.525 221.876 187.318 220.947 187.318H208.683ZM11.8675 187.145C10.9375 187.145 10.1855 186.352 10.1855 185.371C10.1855 184.392 10.9375 183.598 11.8675 183.598H58.3675C59.2975 183.598 60.0495 184.392 60.0495 185.371C60.0495 186.352 59.2975 187.145 58.3675 187.145H11.8675ZM5.797 66.9964C5.797 67.9767 5.031 68.7699 4.115 68.7699C3.186 68.7699 2.434 67.9767 2.434 66.9964V15.2851C2.434 12.0403 3.6915 9.06979 5.7425 6.90662C7.793 4.74346 10.609 3.41719 13.6995 3.41719H30.175C31.105 3.41719 31.857 4.21031 31.857 5.17641C31.857 6.15674 31.105 6.94986 30.175 6.94986H13.6995C11.512 6.94986 9.5435 7.88696 8.121 9.40096C6.672 10.915 5.797 12.9916 5.797 15.2845V66.9964ZM71.3015 3.54744C71.9305 3.54744 72.601 3.11502 72.8055 2.55235C73.366 1.37004 72.5185 0 71.3015 0H67.9385C67.3095 0 66.639 0.447189 66.4345 1.00881C65.874 2.1774 66.7215 3.54692 67.9385 3.54692L71.3015 3.54744ZM84.7425 3.54744C85.3715 3.54744 86.041 3.11502 86.246 2.55235C86.807 1.37004 85.959 0 84.7425 0H81.3785C80.7495 0 80.08 0.447189 79.875 1.00881C79.314 2.1774 80.162 3.54692 81.3785 3.54692L84.7425 3.54744ZM98.182 3.54744C98.811 3.54744 99.4815 3.11502 99.686 2.55235C100.247 1.37004 99.399 0 98.182 0H94.819C94.1755 0 93.5195 0.447189 93.301 1.00881C92.74 2.1774 93.602 3.54692 94.819 3.54692L98.182 3.54744ZM111.608 3.54744C112.251 3.54744 112.907 3.11502 113.126 2.55235C113.687 1.37004 112.825 0 111.608 0H108.258C107.616 0 106.96 0.447189 106.74 1.00881C106.18 2.1774 107.041 3.54692 108.258 3.54692L111.608 3.54744ZM125.049 3.54744C125.691 3.54744 126.347 3.11502 126.566 2.55235C127.126 1.37004 126.265 0 125.049 0H121.699C121.056 0 120.399 0.447189 120.181 1.00881C119.621 2.1774 120.482 3.54692 121.699 3.54692L125.049 3.54744ZM138.488 3.54744C139.131 3.54744 139.787 3.11502 140.006 2.55235C140.567 1.37004 139.705 0 138.488 0H135.125C134.496 0 133.826 0.447189 133.62 1.00881C133.06 2.1774 133.908 3.54692 135.125 3.54692L138.488 3.54744ZM151.929 3.54744C152.557 3.54744 153.227 3.11502 153.433 2.55235C153.993 1.37004 153.145 0 151.929 0H148.564C147.935 0 147.266 0.447189 147.061 1.00881C146.5 2.1774 147.347 3.54692 148.564 3.54692L151.929 3.54744ZM165.368 3.54744C165.997 3.54744 166.667 3.11502 166.872 2.55235C167.433 1.37004 166.585 0 165.368 0H162.004C161.376 0 160.706 0.447189 160.5 1.00881C159.94 2.1774 160.788 3.54692 162.004 3.54692L165.368 3.54744ZM178.808 3.54744C179.437 3.54744 180.108 3.11502 180.313 2.55235C180.873 1.37004 180.025 0 178.808 0H175.445C174.816 0 174.146 0.447189 173.941 1.00881C173.38 2.1774 174.228 3.54692 175.445 3.54692L178.808 3.54744ZM192.235 3.54744C192.878 3.54744 193.534 3.11502 193.753 2.55235C194.313 1.37004 193.451 0 192.235 0H188.885C188.243 0 187.586 0.447189 187.368 1.00881C186.807 2.1774 187.669 3.54692 188.885 3.54692L192.235 3.54744ZM203.611 3.54744C204.253 3.54744 204.91 3.11502 205.129 2.55235C205.675 1.37004 204.827 0 203.611 0H202.326C201.683 0 201.027 0.447189 200.808 1.00881C200.247 2.1774 201.109 3.54692 202.326 3.54692L203.611 3.54744ZM54.4985 0.000527054C53.8695 0.000527054 53.213 0.447716 52.995 1.00934C52.434 2.17793 53.296 3.54744 54.4985 3.54744H57.8625C58.4915 3.54744 59.161 3.11502 59.366 2.55235C59.927 1.37004 59.079 0 57.8625 0L54.4985 0.000527054ZM187.86 34.0168C185.713 34.0168 183.758 34.926 182.364 36.4105C180.956 37.8955 180.094 39.9437 180.094 42.2075C180.094 44.4714 180.956 46.5196 182.35 48.0046C183.758 49.4896 185.714 50.3983 187.861 50.3983C190.007 50.3983 191.948 49.4754 193.343 48.0046L193.439 47.9182C194.792 46.4474 195.626 44.4287 195.626 42.2075C195.626 39.9437 194.751 37.8955 193.343 36.4105C191.947 34.926 190.006 34.0168 187.86 34.0168Z" fill="#730505"/>
</svg>
