<svg xmlns="http://www.w3.org/2000/svg" width="24" height="20" viewBox="0 0 24 20" fill="none">
    <path fill-rule="evenodd" clip-rule="evenodd" d="M17.8274 2.14665H2.87093V3.33138H17.8275V2.14665H17.8274ZM2.69077 1.78367H18.0077C18.1073 1.78367 18.1878 1.86628 18.1878 1.96513V3.51132C18.1878 3.61169 18.1073 3.69278 18.0077 3.69278H2.69077C2.59117 3.69278 2.51056 3.61169 2.51056 3.51132V1.96513C2.51056 1.86633 2.59117 1.78367 2.69077 1.78367ZM22.4883 15.4529C22.3872 15.3526 22.2495 15.2892 22.0958 15.2892C21.9434 15.2892 21.8043 15.3526 21.7047 15.4529C21.6036 15.5533 21.5421 15.6935 21.5421 15.8483C21.5421 16.0017 21.6037 16.1419 21.7047 16.2423C21.8043 16.3441 21.9434 16.406 22.0958 16.406C22.2495 16.406 22.3887 16.344 22.4883 16.2423C22.5879 16.1419 22.6509 16.0017 22.6509 15.8483C22.6509 15.6935 22.588 15.5533 22.4883 15.4529ZM22.0958 14.9262C22.3491 14.9262 22.5776 15.0295 22.7432 15.1962C22.9073 15.363 23.0098 15.5931 23.0098 15.8483C23.0098 16.1021 22.9087 16.3322 22.7432 16.4989C22.5776 16.6657 22.3491 16.7689 22.0958 16.7689C21.8438 16.7689 21.6154 16.6657 21.4498 16.4989C21.2843 16.3322 21.1818 16.1021 21.1818 15.8483C21.1818 15.5931 21.2843 15.363 21.4498 15.1962C21.6154 15.0295 21.8438 14.9262 22.0958 14.9262ZM21.3195 4.15902C21.2199 4.05875 21.0807 3.99532 20.9284 3.99532C20.7746 3.99532 20.6369 4.05875 20.5358 4.15902C20.4362 4.2594 20.3732 4.39955 20.3732 4.55437C20.3732 4.70782 20.4362 4.84803 20.5358 4.94835C20.6369 5.05015 20.7746 5.11211 20.9284 5.11211C21.0807 5.11211 21.2199 5.0501 21.3195 4.94835C21.4206 4.84803 21.482 4.70782 21.482 4.55437C21.482 4.39955 21.4206 4.2594 21.3195 4.15902ZM20.9284 3.63235C21.1803 3.63235 21.4088 3.73561 21.5743 3.90231C21.7399 4.06905 21.8423 4.29923 21.8423 4.55437C21.8423 4.8082 21.7399 5.03832 21.5743 5.20502C21.4088 5.37177 21.1803 5.47508 20.9284 5.47508C20.6749 5.47508 20.4464 5.37177 20.281 5.20502C20.1169 5.03832 20.0144 4.8082 20.0144 4.55437C20.0144 4.29923 20.1169 4.06905 20.281 3.90231C20.4464 3.73561 20.6749 3.63235 20.9284 3.63235ZM6.46984 15.1843C6.37024 15.0825 6.23109 15.0206 6.07874 15.0206C5.92493 15.0206 5.78579 15.0826 5.68619 15.1843C5.58659 15.2847 5.52361 15.4249 5.52361 15.5783C5.52361 15.7331 5.58659 15.8733 5.68619 15.9737C5.78579 16.074 5.92499 16.1374 6.07874 16.1374C6.23109 16.1374 6.37024 16.074 6.46984 15.9737C6.56944 15.8733 6.63247 15.7331 6.63247 15.5783C6.63247 15.4249 6.56944 15.2848 6.46984 15.1843ZM6.07874 14.6577C6.33069 14.6577 6.55922 14.761 6.72471 14.9277C6.89016 15.0944 6.99268 15.3246 6.99268 15.5784C6.99268 15.8336 6.89016 16.0637 6.72471 16.2305C6.55922 16.3972 6.33069 16.5005 6.07874 16.5005C5.82533 16.5005 5.59681 16.3972 5.43126 16.2305C5.26582 16.0637 5.1633 15.8336 5.1633 15.5784C5.1633 15.3246 5.26582 15.0944 5.43126 14.9277C5.59681 14.761 5.82533 14.6577 6.07874 14.6577ZM18.4632 16.2039C18.4632 16.1036 18.5453 16.0224 18.6434 16.0224C18.7429 16.0224 18.8236 16.1036 18.8236 16.2039V17.3798H23.9999V13.4774H20.4347L17.5448 15.1579C17.5154 15.1786 17.4788 15.1918 17.4407 15.1918H9.23089C9.13275 15.1918 9.05219 15.1107 9.05219 15.0103C9.05219 14.9101 9.13275 14.8289 9.23089 14.8289H17.3939L20.3 13.1396C20.3278 13.1234 20.3585 13.116 20.3893 13.116L23.9999 13.1145V9.54119H15.1719C15.125 9.54119 15.0796 9.52343 15.0445 9.48801L13.108 7.53907C13.0377 7.46823 13.0377 7.35319 13.108 7.28235C13.1784 7.21151 13.2926 7.21151 13.363 7.28235L15.2467 9.17969H24V7.03451H20.7043C20.6735 7.03309 20.6442 7.02568 20.6149 7.00945L16.9941 4.90405H6.29407C6.19593 4.90405 6.11391 4.82291 6.11391 4.72259C6.11391 4.62227 6.19593 4.54113 6.29407 4.54113H17.0409C17.079 4.54113 17.1157 4.55295 17.1449 4.57508L20.7511 6.67159H23.9999V4.99854L20.1008 1.07117H19.8401H1.40176V5.78493H10.3001C10.3982 5.78493 10.4803 5.86607 10.4803 5.96634C10.4803 6.06519 10.3983 6.1478 10.3001 6.1478H1.40176V7.12895H4.79271C4.83956 7.12895 4.885 7.14671 4.92012 7.18213L6.90335 9.17974H11.2332C11.3328 9.17974 11.4133 9.26088 11.4133 9.3612C11.4133 9.46153 11.3328 9.54267 11.2332 9.54267H6.82875C6.77892 9.54267 6.73353 9.52201 6.70128 9.48959L4.71799 7.49187H1.40176V12.3724H9.85771L11.4733 10.7451C11.5437 10.6742 11.6579 10.6742 11.7282 10.7451C11.7985 10.8159 11.7985 10.9309 11.7282 11.0018L10.0598 12.6822C10.0247 12.7177 9.97781 12.7353 9.93242 12.7353H1.40176V13.684H11.3591L14.0426 10.9797C14.0763 10.9472 14.1202 10.9266 14.17 10.9266H20.8449C20.9445 10.9266 21.025 11.0092 21.025 11.108C21.025 11.2083 20.9445 11.2895 20.8449 11.2895H14.2447L11.5612 13.9924C11.5261 14.0278 11.4807 14.0455 11.4338 14.0455H1.59073L4.89961 17.3798H7.45118V16.204C7.45118 16.1036 7.53174 16.0225 7.62988 16.0225C7.72948 16.0225 7.81003 16.1036 7.81003 16.204V17.3798H9.28651V16.204C9.28651 16.1036 9.36706 16.0225 9.46672 16.0225C9.56486 16.0225 9.64687 16.1036 9.64687 16.204V17.3798H11.1219V16.204C11.1219 16.1036 11.2024 16.0225 11.302 16.0225C11.4015 16.0225 11.4821 16.1036 11.4821 16.204V17.3798H12.9572V16.204C12.9572 16.1036 13.0377 16.0225 13.1373 16.0225C13.2369 16.0225 13.3175 16.1036 13.3175 16.204V17.3798H14.7925V16.204C14.7925 16.1036 14.873 16.0225 14.9726 16.0225C15.0722 16.0225 15.1528 16.1036 15.1528 16.204V17.3798H16.6278V16.204C16.6278 16.1036 16.7084 16.0225 16.808 16.0225C16.9076 16.0225 16.9881 16.1036 16.9881 16.204V17.3798H18.4631V16.2039H18.4632ZM1.65814 19.0557C1.55854 19.0557 1.47793 18.9731 1.47793 18.8742C1.47793 18.7739 1.55849 18.6928 1.65814 18.6928H17.082C17.1816 18.6928 17.2621 18.7739 17.2621 18.8742C17.2621 18.9731 17.1816 19.0557 17.082 19.0557H1.65814ZM10.6898 20C10.5902 20 10.5096 19.9188 10.5096 19.8185C10.5096 19.7196 10.5902 19.637 10.6898 19.637H21.3634C21.463 19.637 21.5436 19.7196 21.5436 19.8185C21.5436 19.9188 21.463 20 21.3634 20H10.6898ZM22.4561 20C22.3565 20 22.2759 19.9188 22.2759 19.8185C22.2759 19.7196 22.3565 19.637 22.4561 19.637H23.7904C23.89 19.637 23.9706 19.7196 23.9706 19.8185C23.9706 19.9188 23.89 20 23.7904 20H22.4561ZM1.05021 19.9719C0.950611 19.9719 0.870054 19.8908 0.870054 19.7905C0.870054 19.6902 0.950611 19.609 1.05021 19.609H6.10801C6.20761 19.609 6.28817 19.6902 6.28817 19.7905C6.28817 19.8908 6.20761 19.9719 6.10801 19.9719H1.05021ZM1.2216 0.708139H19.4007L18.6991 0H0V12.7722L1.04139 13.5674V12.5583V12.5538V12.5494V7.31488V7.306V5.97075V5.96634V5.96193V0.889601C1.04145 0.789279 1.122 0.708139 1.2216 0.708139Z" fill="#730505"/>
</svg>