<svg xmlns="http://www.w3.org/2000/svg" width="26" height="26" viewBox="0 0 26 26" fill="none">
    <path fill-rule="evenodd" clip-rule="evenodd" d="M13 1C10.151 0.9985 7.39457 2.03714 5.22421 3.92995C3.05384 5.82275 1.61131 8.4461 1.15492 11.3303C0.698531 14.2144 1.25809 17.171 2.73339 19.6706C4.2087 22.1702 6.5034 24.0496 9.2066 24.9722C9.80908 25.0866 10.0266 24.709 10.0266 24.4001C10.0266 24.0911 10.0266 23.3359 10.0266 22.3118C6.67954 23.0556 5.9878 20.6641 5.9878 20.6641C5.76641 19.9074 5.28471 19.2589 4.63222 18.839C3.54441 18.0781 4.7159 18.0895 4.7159 18.0895C5.09588 18.144 5.45872 18.2868 5.77677 18.5069C6.09482 18.727 6.3597 19.0187 6.55123 19.3596C7.62231 21.2419 9.34049 20.6984 10.0434 20.3837C10.0989 19.7587 10.3699 19.1745 10.8076 18.736C8.14111 18.4271 5.34069 17.3743 5.34069 12.66C5.32302 11.437 5.76672 10.2543 6.57912 9.35881C6.21003 8.29836 6.25196 7.13305 6.69627 6.10339C6.69627 6.10339 7.70041 5.77156 9.99318 7.36208C11.9582 6.81283 14.0307 6.81283 15.9957 7.36208C18.2884 5.77156 19.2926 6.10339 19.2926 6.10339C19.7335 7.13385 19.7754 8.29782 19.4097 9.35881C20.2206 10.2548 20.6623 11.4377 20.6426 12.66C20.6426 17.3858 17.8533 18.4213 15.17 18.7303C15.458 19.0295 15.6797 19.3887 15.8202 19.7836C15.9608 20.1785 16.0168 20.5997 15.9845 21.0188C15.9845 22.6608 15.9845 23.9882 15.9845 24.3944C15.9845 24.8006 16.2021 25.1038 16.8101 24.9665C19.5106 24.0403 21.8016 22.1589 23.2735 19.659C24.7453 17.159 25.3019 14.2036 24.8437 11.3213C24.3854 8.43905 22.9423 5.81799 20.7724 3.92701C18.6025 2.03604 15.8474 0.998498 13 1Z" stroke="#730505" stroke-linecap="round" stroke-linejoin="round"/>
</svg>