<svg xmlns="http://www.w3.org/2000/svg" width="139" height="331" viewBox="0 0 139 331" fill="none">
    <path d="M71.2659 188.92C70.7791 194.654 74.6709 225.002 76.6793 236.902C77.6354 242.54 80.2572 251.725 79.3139 256.601C77.9669 263.398 77.5778 272.194 78.3193 277.316C78.7869 280.426 80.2588 294.772 78.1527 300.019C77.0508 302.77 75.0312 316.87 75.0312 316.87C69.7701 330.154 72.7394 329.5 72.7394 329.5C74.3682 331.499 77.1581 329.657 77.1581 329.657C79.2834 331.012 80.7553 329.335 80.7553 329.335C82.5795 330.846 84.7064 329.15 84.7064 329.15C86.9982 330.34 89.1235 328.145 89.1235 328.145C90.44 328.808 90.7619 327.971 90.7619 327.971C94.7114 327.718 88.5582 315.078 88.5582 315.078C87.0847 303.726 90.0204 297.408 90.0204 297.408C99.6363 268.892 100.125 261.324 96.281 250.578C95.1983 247.476 94.9244 246.247 95.4225 244.9C96.574 241.792 95.7348 229.288 97.1394 224.323C99.8493 214.747 102.522 190.463 103.916 179.132C105.788 163.869 97.2835 143.404 97.2835 143.404C95.4209 135.075 98.1516 105.403 98.1516 105.403C101.965 111.337 101.819 121.811 101.819 121.811C101.214 132.796 110.694 149.586 110.694 149.586C115.248 156.524 116.973 163.106 116.973 163.595C116.973 165.593 116.536 170.432 116.536 170.432L116.711 174.646C116.789 175.719 117.393 179.413 117.295 181.199C116.584 192.189 118.33 190.122 118.33 190.122C119.803 190.122 121.423 181.278 121.423 181.278C121.423 183.558 120.865 190.386 122.095 192.961C123.567 196.033 124.65 192.434 124.669 191.712C125.058 177.719 125.899 181.385 125.899 181.385C126.717 192.737 127.723 195.301 129.526 194.414C130.893 193.762 129.643 180.791 129.643 180.791C131.983 188.496 133.758 189.723 133.758 189.723C137.619 192.434 135.231 184.945 134.695 183.462C131.838 175.582 131.749 172.852 131.749 172.852C135.319 179.932 138.01 179.67 138.01 179.67C141.492 178.558 134.967 168.532 131.144 163.729C129.193 161.282 126.677 158.005 125.947 156.059C124.757 152.763 123.859 142.167 123.859 142.167C123.498 129.664 120.407 124.233 120.407 124.233C115.122 115.773 114.127 99.9928 114.127 99.9928L113.893 73.3506C112.04 55.1775 98.6497 55.0462 98.6497 55.0462C85.1148 53.0314 83.2313 48.6591 83.2313 48.6591C80.3645 44.5334 82.0029 36.6249 82.0029 36.6249C84.3812 34.6901 85.299 29.5539 85.299 29.5539C89.2484 26.5253 89.0546 22.0937 87.2305 22.1418C85.7666 22.1802 86.0981 20.9678 86.0981 20.9678C88.5678 1.0186 70.8575 0 70.8575 0H68.1541C68.1541 0 50.4358 1.0186 52.9023 20.963C52.9023 20.963 53.2338 22.177 51.7571 22.137C49.9377 22.0889 49.768 26.5205 53.7031 29.5491C53.7031 29.5491 54.6192 34.6837 56.9991 36.62C56.9991 36.62 58.6375 44.5286 55.7707 48.6543C55.7707 48.6543 53.8936 53.0266 40.3523 55.0414C40.3523 55.0414 26.9391 55.1727 25.1149 73.3458L24.8619 99.988C24.8619 99.988 23.8865 115.768 18.5805 124.228C18.5805 124.228 15.5039 129.66 15.1483 142.162C15.1483 142.162 14.2466 152.758 13.0614 156.054C12.3391 157.991 9.82467 161.268 7.85794 163.724C4.00134 168.518 -2.48024 178.523 0.987168 179.665C0.987168 179.665 3.69223 179.928 7.24773 172.847C7.24773 172.847 7.17406 175.558 4.32165 183.457C3.7611 184.921 1.37636 192.41 5.23936 189.718C5.23936 189.718 7.02832 188.49 9.35381 180.786C9.35381 180.786 8.10618 193.757 9.49474 194.409C11.3093 195.298 12.2991 192.732 13.1175 181.38C13.1175 181.38 13.9567 177.714 14.3459 191.707C14.3651 192.429 15.4238 196.028 16.902 192.956C18.1497 190.381 17.5891 183.565 17.5891 181.273C17.5891 181.273 19.1891 190.117 20.685 190.117C20.685 190.117 22.4451 192.184 21.7228 181.194C21.6059 179.399 22.2353 175.714 22.3138 174.641L22.4835 170.427C22.4835 170.427 22.0447 165.6 22.0447 163.59C22.0447 163.092 23.7712 156.519 28.3245 149.581C28.3245 149.581 37.7946 132.784 37.1844 121.806C37.1844 121.806 37.0531 111.332 40.8664 105.398C40.8664 105.398 43.5731 135.069 41.7393 143.399C41.7393 143.399 33.2205 163.864 35.0991 179.127C36.4829 190.488 39.1511 214.741 41.8674 224.318C43.2864 229.274 42.4472 241.774 43.5843 244.895C44.0968 246.252 43.8277 247.501 42.7258 250.573C38.9029 261.32 39.3898 268.889 49.0056 297.403C49.0056 297.403 51.9653 303.721 50.4695 315.073C50.4695 315.073 44.3258 327.713 48.2609 327.966C48.2609 327.966 48.5684 328.804 49.8993 328.141C49.8993 328.141 52.0246 330.335 54.3213 329.145C54.3213 329.145 56.4482 330.842 58.2659 329.331C58.2659 329.331 59.7234 331.007 61.8487 329.652C61.8487 329.652 64.6386 331.534 66.2962 329.496C66.2962 329.496 69.2415 330.149 63.998 316.866C63.998 316.866 61.9896 302.783 60.8829 300.014C58.772 294.769 60.2631 280.393 60.7132 277.311C61.4387 272.161 61.0495 263.386 59.7234 256.597C58.7528 251.731 61.381 242.544 62.3516 236.897C64.3455 225.009 68.2534 194.659 67.7649 188.916L69.3793 189.483C70.5356 189.486 71.2659 188.92 71.2659 188.92Z" fill="#130303"/>
</svg>