<svg xmlns="http://www.w3.org/2000/svg" width="24" height="24" viewBox="0 0 24 24" fill="none">
    <path d="M9.38042 9.00655H7.13519C6.92863 9.00655 6.76099 9.17418 6.76099 9.38073V17.6127C6.76099 17.8193 6.92863 17.9869 7.13519 17.9869H9.38042C9.58698 17.9869 9.75462 17.8193 9.75462 17.6127V9.38073C9.75462 9.17418 9.58698 9.00655 9.38042 9.00655ZM9.00622 17.2385H7.5094V9.75491H9.00622V17.2385Z" fill="#730505"/>
    <path d="M8.25781 5.26473C7.43231 5.26473 6.76099 5.93601 6.76099 6.76146C6.76099 7.5869 7.43231 8.25819 8.25781 8.25819C9.0833 8.25819 9.75462 7.5869 9.75462 6.76146C9.75462 5.93601 9.0833 5.26473 8.25781 5.26473ZM8.25781 7.50982C7.84468 7.50982 7.5094 7.17381 7.5094 6.76146C7.5094 6.34911 7.84468 6.0131 8.25781 6.0131C8.67093 6.0131 9.00622 6.34911 9.00622 6.76146C9.00622 7.17381 8.67093 7.50982 8.25781 7.50982Z" fill="#730505"/>
    <path d="M14.6307 8.99607C14.231 8.99607 13.8096 9.08513 13.4676 9.23555C13.4115 9.10084 13.2775 9.00655 13.1226 9.00655H10.8774C10.6708 9.00655 10.5032 9.17418 10.5032 9.38073V17.6127C10.5032 17.8193 10.6708 17.9869 10.8774 17.9869H13.1226C13.3292 17.9869 13.4968 17.8193 13.4968 17.6127L13.4953 12.6279C13.4953 12.6256 13.4863 12.3764 13.645 12.2051C13.77 12.0688 13.9833 12 14.2782 12C14.7661 12 14.9936 12.2088 14.9936 12.6578V17.6127C14.9936 17.8193 15.1613 17.9869 15.3678 17.9869H17.6131C17.8196 17.9869 17.9873 17.8193 17.9873 17.6127V12.4924C17.9873 9.91207 16.1791 8.99607 14.6307 8.99607ZM17.2389 17.2385H15.742V12.6578C15.742 11.7905 15.1815 11.2516 14.2782 11.2516C13.7662 11.2516 13.3681 11.4013 13.0949 11.6969C12.7155 12.1078 12.7447 12.6294 12.7484 12.6578V17.2385H11.2516V9.75491H12.7484V10.0206C12.7484 10.2271 12.916 10.3948 13.1226 10.3948C13.306 10.3948 13.4579 10.263 13.4901 10.0894C13.5904 9.98017 14.0304 9.74518 14.6299 9.74518C15.2414 9.74518 17.2381 9.9435 17.2381 12.4924L17.2389 17.2385Z" fill="#730505"/>
    <path d="M12 0C5.38256 0 0 5.38372 0 12C0 18.6163 5.38256 24 12 24C18.6174 24 24 18.6163 24 12C24 5.38372 18.6174 0 12 0ZM12 23.1993C5.82412 23.1993 0.799302 18.1755 0.799302 12C0.799302 5.82451 5.82412 0.800748 12 0.800748C18.1759 0.800748 23.2007 5.82451 23.2007 12C23.2007 18.1755 18.1759 23.1993 12 23.1993Z" fill="#730505"/>
</svg> 