<svg xmlns="http://www.w3.org/2000/svg" width="200" height="197" viewBox="0 0 200 197" fill="none">
    <path fill-rule="evenodd" clip-rule="evenodd" d="M124.267 40.7996C123.65 40.1899 122.791 39.8177 121.843 39.8177C120.893 39.8177 120.04 40.1903 119.417 40.7996C118.796 41.4092 118.416 42.2458 118.416 43.1763C118.416 44.0754 118.775 44.8914 119.36 45.501L119.417 45.5527C119.987 46.111 120.751 46.4725 121.606 46.5238C121.679 46.5142 121.763 46.5035 121.843 46.5035C121.922 46.5035 122 46.5138 122.079 46.5238C122.933 46.4725 123.697 46.111 124.267 45.5527C124.883 44.9427 125.268 44.106 125.268 43.1763C125.269 42.2458 124.883 41.4092 124.267 40.7996ZM104.986 71.0252C104.364 70.4255 103.511 70.0434 102.562 70.0434C101.613 70.0434 100.754 70.416 100.137 71.0252C99.5153 71.6348 99.1302 72.4719 99.1302 73.402C99.1302 74.3011 99.4942 75.1274 100.079 75.7267L100.137 75.7787C100.748 76.3776 101.586 76.7502 102.514 76.7602H102.524H102.561H102.592H102.603C103.531 76.7506 104.374 76.378 104.981 75.7787C105.602 75.1684 105.986 74.3317 105.986 73.402C105.987 72.4722 105.603 71.6348 104.986 71.0252ZM134.672 92.1883C134.055 91.5894 133.196 91.2069 132.247 91.2069C131.303 91.2069 130.445 91.5894 129.823 92.1883C129.2 92.7983 128.822 93.6457 128.822 94.5655C128.822 95.4749 129.18 96.2909 129.765 96.8902L129.823 96.9419C130.434 97.5411 131.277 97.9133 132.205 97.9237H132.216H132.247H132.279H132.289C133.217 97.9133 134.06 97.5411 134.672 96.9419C135.288 96.3323 135.673 95.4956 135.673 94.5655C135.673 93.6457 135.288 92.7983 134.672 92.1883ZM79.3118 102.512C78.6849 101.902 77.8259 101.53 76.8825 101.53C75.9653 101.53 75.127 101.882 74.5103 102.45L74.4575 102.512C73.836 103.122 73.4563 103.958 73.4563 104.889C73.4563 105.819 73.836 106.655 74.4575 107.266C75.0688 107.865 75.913 108.236 76.8403 108.247H76.8505H76.8829H76.9145H76.9247C77.852 108.237 78.6958 107.865 79.3075 107.266C79.9239 106.655 80.3087 105.819 80.3087 104.889C80.3087 103.958 79.9286 103.122 79.3118 102.512ZM62.0606 67.9454C64.2114 67.9454 66.1302 68.7932 67.5477 70.1881C68.9657 71.5831 69.8356 73.4636 69.8356 75.572C69.8356 77.6799 68.9657 79.6018 67.5477 80.9968L67.5005 81.0381C66.0876 82.3818 64.1642 83.2395 62.0606 83.2395C59.9106 83.2395 57.9446 82.3818 56.5743 80.9968C55.1563 79.6018 54.2864 77.6799 54.2864 75.572C54.2864 73.4636 55.1563 71.5831 56.5743 70.1881C57.9442 68.7932 59.9103 67.9454 62.0606 67.9454ZM76.8825 98.9675C78.5267 98.9675 80.0341 99.6392 81.1302 100.714C82.227 101.799 82.9118 103.276 82.9118 104.889C82.9118 106.501 82.227 107.978 81.1302 109.053C80.3556 109.817 79.3013 110.396 78.1575 110.675V123.406L91.8356 146.585V55.7521C91.8356 55.0395 92.3786 54.5015 93.1161 54.5015C93.8442 54.5015 94.3919 55.0391 94.3919 55.7521V120.09L101.254 108.475V79.158C100.111 78.9305 99.1044 78.352 98.2817 77.5873L98.2345 77.4938C97.1856 76.419 96.5427 74.983 96.5427 73.4127C96.5427 71.8002 97.2274 70.3229 98.2817 69.2477C99.3786 68.1728 100.886 67.5012 102.583 67.5012C104.227 67.5012 105.734 68.1728 106.789 69.2477C107.886 70.2812 108.57 71.7593 108.57 73.4127C108.57 75.0347 107.886 76.5128 106.831 77.5873C106.009 78.3516 105.008 78.9305 103.859 79.158V108.784C103.859 109.053 103.769 109.281 103.632 109.508L94.3923 125.153V172.047H120.556V88.3032L107.886 66.8299C107.749 66.6442 107.659 66.375 107.659 66.1066V38.991C107.659 38.309 108.254 37.7301 108.982 37.7301C109.672 37.7301 110.263 38.309 110.263 38.991V65.7964L120.556 83.2399V48.9427C119.413 48.7149 118.406 48.1366 117.584 47.372L117.489 47.2785C116.482 46.2037 115.845 44.7677 115.845 43.1553C115.845 41.5436 116.482 40.0655 117.584 39.032C118.681 37.9571 120.188 37.2855 121.832 37.2855C123.482 37.2855 124.989 37.9571 126.086 38.9906C127.188 40.0651 127.872 41.5432 127.872 43.1549C127.872 44.8083 127.188 46.2963 126.086 47.3716C125.311 48.1359 124.257 48.7145 123.161 48.9423V147.339L130.935 139.672V100.311C129.791 100.094 128.785 99.5051 128.01 98.7504L127.92 98.6577C126.866 97.5829 126.228 96.1465 126.228 94.5758C126.228 92.9637 126.913 91.4864 128.01 90.4116C129.106 89.3367 130.572 88.6548 132.264 88.6548C133.908 88.6548 135.421 89.3367 136.517 90.4116C137.614 91.4864 138.251 92.9637 138.251 94.5758C138.251 96.1883 137.614 97.6652 136.517 98.7504C135.69 99.5051 134.688 100.094 133.545 100.311V140.219C133.545 140.571 133.408 140.891 133.175 141.108L123.161 150.925V172.047H140.539L143.327 127.933C143.607 123.758 144.244 119.996 145.161 116.948C146.121 113.631 147.449 111.027 148.909 109.508C159.841 97.8513 166.197 83.5493 166.793 69.5165C167.341 56.2894 162.856 43.2479 152.293 32.6667C142.368 22.7564 128.1 17.466 113.421 16.6186C98.1458 15.7196 82.3653 19.574 70.5685 27.9132C46.6923 44.7256 46.8813 62.9648 47.0138 75.8818C47.061 81.7511 47.1028 86.5973 44.9579 89.9563C43.0341 93.0564 40.5251 95.7426 38.327 98.1197C35.9024 100.765 33.7997 103.008 33.4782 104.62C33.1567 106.056 34.8013 107.307 40.0614 108.34L40.7044 108.475C41.3001 108.567 41.6216 108.65 42.3071 108.918H42.397C46.5556 110.583 46.0544 115.646 45.506 121.34C45.2798 123.447 45.0474 125.732 45.0954 127.798C45.1845 133.223 47.1032 137.842 56.3903 137.708C57.8556 137.656 59.3212 137.573 60.6915 137.481C66.2259 137.119 70.6642 136.809 74.5013 141.066C75.3712 142.048 76.1032 143.753 76.5571 145.954C76.9259 147.876 77.1528 150.212 77.063 152.857L76.3302 172.047H91.8372V151.286C91.6528 151.193 91.4685 151.059 91.3786 150.842L75.8298 124.481C75.6927 124.253 75.5974 124.026 75.5974 123.716V110.674C74.4587 110.395 73.4048 109.858 72.6247 109.052C71.5286 107.978 70.8431 106.5 70.8431 104.888C70.8431 103.276 71.5286 101.798 72.6247 100.713L72.72 100.631C73.8145 99.5978 75.2802 98.9675 76.8825 98.9675ZM31.6114 180.541C30.8946 180.541 30.3146 179.973 30.3146 179.27C30.3146 178.567 30.8946 177.999 31.6114 177.999H129.627C130.338 177.999 130.918 178.567 130.918 179.27C130.918 179.973 130.339 180.541 129.627 180.541H31.6114ZM89.0056 186.959C88.2888 186.959 87.7087 186.39 87.7087 185.688C87.7087 184.985 88.2888 184.416 89.0056 184.416H156.83C157.541 184.416 158.127 184.985 158.127 185.688C158.127 186.39 157.541 186.959 156.83 186.959H89.0056ZM163.772 186.959C163.06 186.959 162.475 186.39 162.475 185.688C162.475 184.985 163.06 184.416 163.772 184.416H172.253C172.964 184.416 173.549 184.985 173.549 185.688C173.549 186.39 172.964 186.959 172.253 186.959H163.772ZM27.7478 186.607C27.0313 186.607 26.4517 186.039 26.4517 185.336C26.4517 184.633 27.0313 184.065 27.7478 184.065H59.8892C60.6059 184.065 61.186 184.633 61.186 185.336C61.186 186.039 60.6059 186.607 59.8892 186.607H27.7478ZM40.6985 87.0009C40.3243 87.6006 39.5278 87.7863 38.922 87.4145C38.3161 87.053 38.1317 86.2673 38.5005 85.6787C40.2501 82.9091 40.2028 78.4136 40.1556 72.9371C40.029 59.5036 39.8446 40.4687 64.8017 22.8809C71.0216 18.4995 78.1899 15.2853 85.7634 13.2811C93.5173 11.2348 101.723 10.4495 109.799 10.9763C110.51 11.0177 111.047 11.6273 111 12.3196C110.953 13.0223 110.336 13.5496 109.625 13.5082C101.84 12.9913 93.9231 13.756 86.4329 15.7299C79.1384 17.6621 72.2544 20.7415 66.3145 24.9272C42.4376 41.7607 42.6118 60.0308 42.7329 72.916C42.7903 78.7961 42.8329 83.6113 40.6985 87.0009ZM65.7399 71.976C64.7915 71.0566 63.4942 70.488 62.0606 70.488C60.6274 70.488 59.3259 71.0562 58.3821 71.976C57.4438 72.8958 56.8645 74.177 56.8645 75.5823C56.8645 76.988 57.4438 78.2589 58.3821 79.1886C59.3259 80.1084 60.6278 80.677 62.0606 80.677C63.463 80.677 64.7388 80.1291 65.6763 79.2507L65.7345 79.1886C66.6727 78.2589 67.2575 76.988 67.2575 75.5823C67.2575 74.177 66.6782 72.9057 65.7399 71.976Z" fill="#730505"/>
</svg>