<svg xmlns="http://www.w3.org/2000/svg" width="200" height="201" viewBox="0 0 200 201" fill="none">
    <path fill-rule="evenodd" clip-rule="evenodd" d="M115.339 99.3549C115.247 94.4471 114.574 89.8443 113.45 85.771C109.388 86.4841 105.324 86.8706 101.251 86.9317V99.3549H115.339ZM113.481 115.322C114.584 111.29 115.247 106.717 115.339 101.86H101.251V114.161C105.334 114.222 109.408 114.61 113.481 115.322ZM101.25 131.473C104.844 130.862 108.131 127.664 110.633 122.817C111.429 121.279 112.143 119.568 112.756 117.735C108.918 117.074 105.09 116.717 101.251 116.656V131.473H101.25ZM87.2442 117.745C87.8669 119.579 88.5712 121.279 89.3677 122.817C91.8689 127.664 95.156 130.861 98.7392 131.473V116.656C94.911 116.727 91.0825 117.094 87.2442 117.745ZM84.6614 101.86C84.7532 106.728 85.4169 111.3 86.5192 115.342C90.5927 114.63 94.6657 114.233 98.7392 114.161V101.861H84.6614V101.86ZM86.5497 85.7609C85.4271 89.8341 84.7532 94.4474 84.6614 99.3553H98.7392V86.9321C94.6763 86.8608 90.6134 86.4735 86.5497 85.7609ZM98.7392 69.7531C95.156 70.3539 91.8689 73.5516 89.3677 78.3983C88.5919 79.9051 87.8868 81.5657 87.2849 83.3576C91.1032 84.0095 94.9313 84.3761 98.7392 84.4373V69.7531ZM110.633 78.3983C108.132 73.5516 104.844 70.3539 101.25 69.7531V84.4373C105.069 84.3765 108.897 84.0196 112.715 83.3681C112.113 81.5754 111.409 79.9051 110.633 78.3983ZM84.8044 82.8889C85.4782 80.8522 86.2642 78.9582 87.1419 77.2575C88.4997 74.6103 90.1024 72.3901 91.8888 70.7096C86.57 72.1458 81.8232 74.9462 78.0454 78.7139C74.6567 82.0944 80.8431 82.0847 84.8044 82.8889ZM82.1501 99.3549C82.2419 94.3041 82.9364 89.5279 84.0899 85.2922C80.9353 84.6403 77.781 83.7952 74.6263 82.7564C71.2774 87.4815 69.2255 93.1944 68.9806 99.3549H82.1501ZM84.0587 115.811C82.9259 111.605 82.2419 106.87 82.1497 101.86H68.9806C69.2255 107.98 71.2571 113.652 74.5548 118.357C77.7192 117.318 80.8841 116.462 84.0587 115.811ZM91.8892 130.505C90.1024 128.825 88.5001 126.604 87.1423 123.967C86.2442 122.226 85.4477 120.291 84.7638 118.214C81.9052 118.794 79.0364 119.548 76.1681 120.464C76.7704 121.167 77.3931 121.849 78.0462 122.501C81.8235 126.279 86.5704 129.079 91.8892 130.505ZM115.237 118.194C114.553 120.281 113.757 122.216 112.858 123.967C111.49 126.605 109.898 128.825 108.111 130.505C113.43 129.079 118.177 126.279 121.954 122.501C122.608 121.849 123.23 121.167 123.833 120.454C120.964 119.538 118.095 118.784 115.237 118.194ZM117.85 101.86C117.758 106.86 117.075 111.585 115.952 115.791C119.117 116.453 122.281 117.298 125.446 118.357C128.743 113.652 130.775 107.98 131.02 101.86H117.85ZM115.921 85.3027C117.065 89.5388 117.758 94.3044 117.85 99.3549H131.02C130.775 93.1944 128.723 87.4917 125.374 82.7665C122.22 83.8057 119.065 84.6508 115.921 85.3027ZM108.111 70.71C109.898 72.3905 111.49 74.6107 112.858 77.2579C113.736 78.9691 114.522 80.8628 115.196 82.9095C118.044 82.3192 120.892 81.5758 123.751 80.6695C123.179 79.9876 122.577 79.3354 121.954 78.7143C118.177 74.9465 113.43 72.1458 108.111 70.71ZM99.995 10.9971C102.476 10.9971 104.732 12.0051 106.355 13.6244C107.989 15.2535 109 17.4935 109 19.9681C109 21.9946 108.316 23.8684 107.183 25.3654L175.439 93.4391C176.94 92.3087 178.818 91.6362 180.85 91.6362C183.32 91.6362 185.577 92.6446 187.2 94.2635C188.833 95.893 189.844 98.1334 189.844 100.608C189.844 103.082 188.833 105.332 187.21 106.952L187.118 107.023C185.506 108.601 183.29 109.579 180.85 109.579C178.808 109.579 176.94 108.907 175.429 107.776L141.516 141.615C141.025 142.104 140.229 142.104 139.74 141.615C139.249 141.126 139.249 140.332 139.74 139.843L173.663 106.005L173.653 105.984L173.643 105.974L173.623 105.944L173.602 105.913L173.582 105.903V105.893L173.561 105.863L173.541 105.832L173.52 105.812V105.802L173.5 105.771L173.479 105.741L173.458 105.731V105.72L173.438 105.689L173.417 105.658L173.407 105.638L173.397 105.628L173.377 105.598L173.356 105.566L173.346 105.547L173.336 105.536L173.315 105.516L173.295 105.485L173.285 105.465L173.275 105.455L173.254 105.424L173.244 105.394L173.224 105.373V105.363L173.203 105.333L173.183 105.302L173.172 105.282L173.163 105.272L173.142 105.241L173.132 105.211L173.111 105.19V105.18L173.091 105.15L173.04 105.058L173.02 105.028L173.009 105.007L172.999 104.997L172.989 104.967L172.959 104.916L172.949 104.906L172.938 104.876L172.918 104.845L172.908 104.825L172.898 104.814L172.888 104.784L172.867 104.753C172.449 103.938 172.143 103.042 171.979 102.106L171.969 102.065V102.055L171.959 101.994L171.949 101.953V101.943L171.939 101.841V101.831L171.929 101.78L171.888 101.445V101.404V101.394L171.878 101.343V101.292V101.282V101.231L171.868 101.18V101.17V101.119V101.068V101.058L171.858 101.007V100.956V100.946V100.895V100.834V100.783V100.722V100.671V100.608V100.546V100.496V100.435V100.384V100.373V100.322V100.272V100.262V100.211L171.868 100.16V100.15V100.099V100.048V100.038L171.878 99.9869V99.9359V99.9152V99.8747L171.888 99.8236V99.8034V99.7726L171.898 99.6612L171.908 99.5996V99.5789L171.918 99.5486L171.928 99.4675V99.4367L171.938 99.3861C172.071 98.4085 172.367 97.4815 172.786 96.6263L172.806 96.5959L172.888 96.433L172.898 96.4026L172.919 96.3715L172.99 96.2495V96.2394L173 96.2191L173.072 96.0968L173.092 96.0664L173.102 96.0566L173.113 96.036L173.133 96.0056L173.143 95.9752L173.153 95.9647L173.163 95.944L173.184 95.9136L173.204 95.8836L173.215 95.8735L173.224 95.8529L173.245 95.8225L173.255 95.7921L173.265 95.7819L173.275 95.7613L173.296 95.7309L173.316 95.7001L173.326 95.6904L173.336 95.6806L173.357 95.6502L173.377 95.6191L173.388 95.5992L173.398 95.5887L173.418 95.5583L173.438 95.5279L173.449 95.5072L173.458 95.4975L173.479 95.4769L173.5 95.4465L173.509 95.4157H173.52L173.54 95.3853L173.561 95.3549L173.571 95.3343L173.581 95.3241L173.601 95.3039L173.642 95.2427L173.663 95.2123L105.406 27.137L105.396 27.1475L105.375 27.1573L105.355 27.1779L105.324 27.1986L105.304 27.2083L105.293 27.2181L105.263 27.2387L105.232 27.2594L105.222 27.2691L105.212 27.2792L105.181 27.2999L105.151 27.3202L105.131 27.3303L105.12 27.3404L105.09 27.3607L105.059 27.3813L105.049 27.3915L105.039 27.4012L105.009 27.4219L104.978 27.4425L104.958 27.4522H104.947L104.917 27.4729L104.886 27.4928L104.866 27.5033L104.856 27.513L104.825 27.5337L104.794 27.5543L104.774 27.5641L104.764 27.5746L104.733 27.5843L104.713 27.605L104.683 27.6256H104.672L104.652 27.6455L104.621 27.6662L104.6 27.6763H104.591L104.56 27.6965L104.468 27.7476L104.438 27.7682L104.407 27.7885H104.397L104.366 27.8091L104.315 27.8395H104.306L104.275 27.8598L104.244 27.8703L104.224 27.8902H104.214L104.183 27.9108L104.152 27.9214C103.305 28.3589 102.376 28.6749 101.396 28.8277L101.345 28.8374H101.334L101.243 28.8577H101.233H101.172L100.845 28.8982L100.794 28.9083H100.784H100.733H100.682H100.672L100.62 28.9184H100.569H100.508L100.457 28.9282H100.396H100.345H100.284L100.233 28.9383H100.223H100.172H100.12H100.11H100.059H99.9981H99.947H99.8829H99.8317H99.7704L99.7192 28.9282H99.6579H99.6481H99.6071H99.5462H99.536L99.4954 28.9184H99.4341H99.4239H99.3833L99.322 28.9083H99.3122H99.2712H99.2103L99.2001 28.8982H99.1595L99.047 28.8881L98.9958 28.8783H98.9653H98.9345L98.8532 28.8682L98.8227 28.858H98.7716C97.7915 28.7154 96.8626 28.4306 96.0048 28.0032L95.9743 27.9927L95.9438 27.972L95.8521 27.9218L95.8212 27.9112L95.8114 27.9015L95.7907 27.891L95.7602 27.8711L95.6274 27.8099V27.7998L95.597 27.7897L95.5665 27.7694L95.5356 27.7488L95.4747 27.7184L95.4438 27.6977H95.4337L95.4134 27.6775L95.3825 27.6673L95.3521 27.6467L95.3419 27.6369L95.3216 27.6272L95.2907 27.6065L95.2603 27.5859H95.2501L95.2399 27.5761L95.2095 27.5555L95.179 27.5348L95.1583 27.5251L95.1481 27.5146L95.1177 27.4939L95.0872 27.4741L95.0669 27.4639L95.0567 27.4538L95.0263 27.4441L94.9958 27.4234L94.9751 27.4028H94.9649L94.9345 27.3825L94.9138 27.3618L94.8935 27.3416H94.8833L94.8524 27.3209L94.822 27.3007L94.8017 27.28H94.7915L94.7606 27.2598L94.7403 27.2391L94.7095 27.2185L94.679 27.1986L94.6278 27.1577H94.6177L94.5974 27.137L76.9153 44.7642C76.4255 45.2528 75.629 45.2528 75.1392 44.7642C74.6489 44.2748 74.6489 43.4811 75.1392 42.9921L92.8212 25.3654C91.6778 23.8582 91.004 21.995 91.004 19.9681C91.004 17.4931 92.0145 15.2531 93.638 13.6244C95.2685 12.0051 97.5142 10.9971 99.995 10.9971ZM119.627 30.1513C119.137 29.6626 119.137 28.8682 119.627 28.3796C120.116 27.8902 120.913 27.8902 121.403 28.3796L172.029 78.8772C172.509 79.3561 172.509 80.1501 172.029 80.6387C171.539 81.1273 170.743 81.1273 170.252 80.6387L119.627 30.1513ZM111.919 177.072C111.225 177.072 110.663 176.501 110.663 175.819C110.663 175.127 111.225 174.567 111.919 174.567H157.675C158.37 174.567 158.931 175.127 158.931 175.819C158.931 176.501 158.37 177.072 157.675 177.072H111.919ZM164.311 177.072C163.617 177.072 163.055 176.501 163.055 175.819C163.055 175.127 163.617 174.567 164.311 174.567H172.407C173.101 174.567 173.663 175.127 173.663 175.819C173.663 176.501 173.101 177.072 172.407 177.072H164.311ZM34.4438 176.919C33.7497 176.919 33.1884 176.359 33.1884 175.667C33.1884 174.974 33.7497 174.414 34.4438 174.414H65.122C65.8157 174.414 66.3774 174.974 66.3774 175.667C66.3774 176.359 65.8157 176.919 65.122 176.919H34.4438ZM22.9079 126.737C22.4181 126.249 22.4181 125.454 22.9079 124.965C23.3978 124.477 24.1942 124.477 24.6841 124.965L69.256 169.435L69.3481 169.526H86.4888L24.5614 107.776C23.061 108.906 21.1825 109.579 19.1509 109.579C16.67 109.579 14.4239 108.571 12.7907 106.952C11.1677 105.332 10.1567 103.082 10.1567 100.608C10.1567 98.1334 11.1673 95.8926 12.7907 94.2737C14.4243 92.6442 16.6704 91.6358 19.1509 91.6358C21.1825 91.6358 23.061 92.3083 24.5716 93.4387L52.922 65.1495C53.4114 64.6609 54.2079 64.6609 54.6981 65.1495C55.1876 65.6389 55.1876 66.4326 54.6981 66.9216L26.3376 95.2103L26.3478 95.231L26.3579 95.2407L26.3782 95.2711L26.3989 95.3019L26.4091 95.312L26.4192 95.3218L26.4396 95.3526L26.4599 95.383L26.47 95.4036L26.4802 95.4133L26.5005 95.4441L26.5208 95.4745L26.531 95.4846L26.5411 95.4948L26.5626 95.5263L26.5829 95.5567L26.5931 95.5774L26.6032 95.5871L26.6235 95.6175L26.6442 95.6487L26.6544 95.6686L26.6646 95.6791L26.6849 95.6989L26.7056 95.7297L26.7153 95.75L26.7255 95.7601L26.7356 95.7909L26.7563 95.8213L26.7661 95.8416L26.7763 95.8517L26.797 95.8825L26.8173 95.9125L26.8274 95.9331L26.8376 95.9429L26.8478 95.974L26.8681 96.0044L26.8782 96.0251L26.8884 96.0348L26.9087 96.0652L27.0825 96.3703L27.0927 96.3909V96.4015L27.113 96.4319C27.5622 97.2871 27.8888 98.2343 28.0423 99.2216V99.2626V99.2723L28.0626 99.3744V99.3845L28.0728 99.4352L28.1032 99.771L28.1134 99.8119V99.8217V99.8727L28.1235 99.9234V99.9339V99.9849L28.1337 100.036V100.046V100.097V100.148V100.158V100.209L28.1438 100.26V100.27V100.32V100.382V100.433V100.494V100.544V100.608V100.669V100.719V100.78V100.831V100.842V100.893V100.943V100.954L28.1337 101.005V101.056V101.065V101.116V101.167V101.177L28.1235 101.228V101.279V101.3L28.1134 101.34V101.392V101.412L28.1032 101.443L28.0935 101.554V101.616V101.636L28.0833 101.667L28.0731 101.748V101.778L28.063 101.829C27.9302 102.807 27.6341 103.734 27.2157 104.589L27.195 104.619L27.1747 104.65L27.1341 104.752L27.1134 104.782L27.0931 104.813L27.0829 104.844L27.0114 104.966V104.976L26.9911 104.996L26.981 105.027L26.9603 105.057L26.9196 105.118L26.9095 105.149L26.8997 105.159L26.8895 105.179L26.8692 105.21L26.8489 105.24V105.25L26.8388 105.271L26.8181 105.301L26.7978 105.332L26.7876 105.342L26.7774 105.362L26.7571 105.393L26.7364 105.423L26.7263 105.433V105.454L26.706 105.484L26.6853 105.515L26.6751 105.525L26.6649 105.535L26.6446 105.565L26.6239 105.596L26.6142 105.616L26.604 105.626L26.5833 105.657L26.5626 105.689L26.5524 105.709L26.5423 105.719L26.5216 105.74L26.5013 105.77L26.4911 105.801H26.481L26.4606 105.831L26.4403 105.862L26.42 105.882V105.893L26.3993 105.913L26.3587 105.974L26.338 106.004L94.5946 174.078L94.6048 174.068L94.6146 174.058L94.6454 174.037L94.6759 174.017L94.6962 174.007L94.706 173.997L94.7368 173.976L94.7571 173.956L94.7778 173.946L94.788 173.936L94.8185 173.915L94.8489 173.895L94.8696 173.885L94.8798 173.875L94.9102 173.854L94.931 173.834L94.9513 173.824L94.9614 173.814L94.9923 173.793L95.0228 173.773L95.0431 173.763H95.0532L95.0841 173.742L95.1146 173.722L95.1353 173.712L95.145 173.702L95.1759 173.681L95.2063 173.661L95.2165 173.651L95.2368 173.641L95.2575 173.621L95.288 173.611L95.3083 173.59H95.3185L95.3489 173.57L95.3794 173.549L95.4001 173.539L95.4102 173.529L95.4407 173.519L95.5325 173.468L95.5634 173.447L95.5837 173.427H95.5938L95.6243 173.406L95.6755 173.376H95.6958L95.7263 173.355L95.7571 173.345L95.7774 173.325H95.7876L95.8181 173.304L95.8489 173.294C96.6657 172.866 97.5638 172.561 98.4931 172.409L98.5442 172.399H98.554L98.6052 172.389L98.6563 172.379L98.7583 172.358H98.7685H98.8196L99.1563 172.318L99.2075 172.308H99.2685H99.3192L99.3806 172.298H99.4317H99.4931L99.5442 172.287H99.6052H99.6563H99.7177L99.7689 172.278H99.8302H99.8813H99.9423H99.9935H100.055H100.106H100.116H100.167H100.218H100.228L100.279 172.287H100.34H100.391H100.452H100.463L100.503 172.298H100.564H100.574H100.615L100.666 172.308H100.687H100.727H100.779L100.799 172.318H100.84L100.952 172.328L101.003 172.338H101.024H101.054L101.136 172.348L101.166 172.358H101.228C102.208 172.5 103.137 172.786 103.984 173.213H103.994L104.015 173.223L104.056 173.244L104.147 173.294L104.178 173.304L104.188 173.314L104.209 173.325L104.239 173.345L104.361 173.406L104.372 173.416L104.392 173.426L104.433 173.447L104.463 173.467L104.515 173.498L104.555 173.518H104.565L104.586 173.528L104.617 173.549L104.647 173.569L104.657 173.579L104.667 173.589L104.708 173.61L104.728 173.62L104.749 173.63L104.759 173.64L104.789 173.66L104.82 173.68L104.84 173.69L104.85 173.701L104.881 173.721L104.912 173.741L104.932 173.752L104.942 173.762L104.973 173.771L105.004 173.792L105.024 173.813H105.034L105.055 173.833L105.085 173.854L105.106 173.874H105.116L105.146 173.895L105.177 173.915L105.197 173.936H105.208L105.228 173.956L105.259 173.976L105.289 173.997L105.32 174.017L105.371 174.058L105.402 174.078L119.479 160.046C119.97 159.557 120.766 159.557 121.256 160.046C121.746 160.535 121.746 161.329 121.256 161.818L107.178 175.85C108.322 177.357 108.995 179.221 108.995 181.247C108.995 183.722 107.984 185.973 106.35 187.591L106.269 187.673C104.656 189.241 102.431 190.218 99.9903 190.218C97.5095 190.218 95.2638 189.21 93.6306 187.591C92.0075 185.973 90.9966 183.722 90.9966 181.247C90.9966 179.221 91.6802 177.347 92.8138 175.85L88.9856 172.031H46.4349C45.7403 172.031 45.179 171.471 45.179 170.779C45.179 170.096 45.7403 169.526 46.4349 169.526H65.8009L22.9079 126.737ZM106.569 49.4378L151.295 94.05C147.681 97.6549 147.681 103.56 151.295 107.165L106.569 151.777C102.956 148.172 97.0446 148.172 93.4306 151.777L48.7056 107.165C52.3196 103.56 52.3196 97.6549 48.7056 94.05L93.431 49.4378C97.045 53.0428 102.956 53.0428 106.569 49.4378Z" fill="#730505"/>
</svg>