<svg xmlns="http://www.w3.org/2000/svg" width="200" height="201" viewBox="0 0 200 201" fill="none">
    <path fill-rule="evenodd" clip-rule="evenodd" d="M100.309 85.554C104.472 85.554 108.248 87.2377 110.985 89.969C113.724 92.7 115.412 96.4662 115.412 100.63C115.412 104.783 113.724 108.549 110.985 111.28C108.248 114.011 104.472 115.695 100.309 115.695C96.1337 115.695 92.3575 114.011 89.62 111.28C86.8821 108.549 85.1938 104.783 85.1938 100.63C85.1938 96.4658 86.8821 92.6996 89.62 89.969C92.3575 87.2381 96.1337 85.554 100.309 85.554ZM109 91.9488C106.777 89.7302 103.696 88.3528 100.309 88.3528C96.9087 88.3528 93.8294 89.7298 91.6048 91.9488C89.3806 94.1669 88.0001 97.2392 88.0001 100.63C88.0001 104.01 89.3806 107.082 91.6048 109.3C93.829 111.519 96.9087 112.896 100.309 112.896C103.696 112.896 106.777 111.519 109 109.3C111.225 107.082 112.606 104.01 112.606 100.63C112.606 97.2392 111.225 94.1673 109 91.9488ZM81.9888 69.7722C82.513 69.7722 83.0724 69.4309 83.2431 68.9867C83.7114 68.0539 83.004 66.9731 81.9888 66.9731H79.1825C78.6575 66.9731 78.0989 67.314 77.9274 67.7578C77.4599 68.6914 78.1673 69.7722 79.1825 69.7722H81.9888ZM93.1899 69.7722C93.7263 69.7722 94.2735 69.4309 94.456 68.9867C94.9239 68.0539 94.2052 66.9731 93.1899 66.9731H90.3954C89.8591 66.9731 89.3118 67.314 89.1286 67.7578C88.6728 68.6914 89.3802 69.7722 90.3954 69.7722H93.1899ZM104.403 69.7722C104.939 69.7722 105.487 69.4309 105.669 68.9867C106.137 68.0539 105.418 66.9731 104.403 66.9731H101.609C101.073 66.9731 100.525 67.314 100.342 67.7578C99.8743 68.6914 100.593 69.7722 101.609 69.7722H104.403ZM115.617 69.7722C116.153 69.7722 116.7 69.4309 116.883 68.9867C117.351 68.0539 116.632 66.9731 115.617 66.9731H112.822C112.286 66.9731 111.739 67.314 111.556 67.7578C111.088 68.6914 111.808 69.7722 112.822 69.7722H115.617ZM126.83 69.7722C127.355 69.7722 127.914 69.4309 128.085 68.9867C128.552 68.0539 127.845 66.9731 126.83 66.9731H124.024C123.499 66.9731 122.94 67.314 122.769 67.7578C122.301 68.6914 123.009 69.7722 124.024 69.7722H126.83ZM131.233 73.766C131.233 74.301 131.575 74.8465 132.02 75.0292C132.956 75.4952 134.04 74.7787 134.04 73.766V70.9785C134.04 70.4436 133.686 69.8977 133.253 69.7153C132.317 69.2493 131.233 69.9659 131.233 70.9785V73.766ZM131.233 84.9505C131.233 85.4855 131.575 86.0317 132.02 86.2137C132.956 86.6801 134.04 85.9635 134.04 84.9505V82.1634C134.04 81.6285 133.686 81.0826 133.253 80.9002C132.317 80.4342 131.233 81.1508 131.233 82.1634V84.9505ZM131.233 96.1358C131.233 96.6708 131.575 97.2162 132.02 97.399C132.956 97.8654 134.04 97.1484 134.04 96.1358V93.3483C134.04 92.8134 133.686 92.2675 133.253 92.0851C132.317 91.6187 131.233 92.3357 131.233 93.3483V96.1358ZM131.233 107.321C131.233 107.845 131.575 108.402 132.02 108.573C132.956 109.039 134.04 108.334 134.04 107.321V104.522C134.04 103.999 133.686 103.441 133.253 103.27C132.317 102.804 131.233 103.509 131.233 104.522V107.321ZM131.233 118.506C131.233 119.03 131.575 119.587 132.02 119.758C132.956 120.224 134.04 119.519 134.04 118.506V115.707C134.04 115.183 133.686 114.626 133.253 114.455C132.317 113.989 131.233 114.694 131.233 115.707V118.506ZM131.233 129.691C131.233 130.214 131.575 130.772 132.02 130.942C132.956 131.409 134.04 130.704 134.04 129.691V126.892C134.04 126.368 133.686 125.811 133.253 125.64C132.317 125.174 131.233 125.879 131.233 126.892V129.691ZM124.617 131.477C124.081 131.477 123.534 131.819 123.351 132.262C122.895 133.196 123.602 134.276 124.617 134.276H127.423C127.949 134.276 128.496 133.923 128.678 133.491C129.145 132.558 128.439 131.477 127.423 131.477H124.617ZM113.404 131.477C112.879 131.477 112.32 131.819 112.149 132.262C111.681 133.196 112.388 134.276 113.404 134.276H116.209C116.734 134.276 117.293 133.923 117.465 133.491C117.932 132.558 117.225 131.477 116.209 131.477H113.404ZM102.19 131.477C101.665 131.477 101.107 131.819 100.936 132.262C100.468 133.196 101.175 134.276 102.19 134.276H104.996C105.522 134.276 106.08 133.923 106.251 133.491C106.719 132.558 106.012 131.477 104.996 131.477H102.19ZM90.9767 131.477C90.4524 131.477 89.9048 131.819 89.7224 132.262C89.2548 133.196 89.9731 134.276 90.9767 134.276H93.7829C94.3196 134.276 94.8665 133.923 95.0497 133.491C95.5173 132.558 94.7989 131.477 93.7829 131.477H90.9767ZM79.7751 131.477C79.2392 131.477 78.6915 131.819 78.5091 132.262C78.0407 133.196 78.7599 134.276 79.7751 134.276H82.5696C83.1064 134.276 83.6532 133.923 83.8364 133.491C84.304 132.558 83.5849 131.477 82.5696 131.477H79.7751ZM68.5622 131.477C68.0259 131.477 67.4786 131.819 67.2962 132.262C66.8282 133.196 67.547 134.276 68.5622 134.276H71.3567C71.8931 134.276 72.4403 133.923 72.6235 133.491C73.0911 132.558 72.372 131.477 71.3567 131.477H68.5622ZM69.372 122.272C69.372 121.749 69.0294 121.192 68.5845 121.02C67.6493 120.554 66.5661 121.259 66.5661 122.272V125.071C66.5661 125.595 66.9079 126.152 67.3528 126.323C68.2888 126.79 69.372 126.084 69.372 125.071V122.272ZM69.372 111.087C69.372 110.564 69.0294 110.006 68.5845 109.836C67.6493 109.369 66.5661 110.075 66.5661 111.087V113.886C66.5661 114.421 66.9079 114.967 67.3528 115.149C68.2888 115.604 69.372 114.899 69.372 113.886V111.087ZM69.372 99.9137C69.372 99.3787 69.0294 98.8332 68.5845 98.6505C67.6493 98.1841 66.5661 98.901 66.5661 99.9137V102.701C66.5661 103.236 66.9079 103.782 67.3528 103.964C68.2888 104.43 69.372 103.713 69.372 102.701V99.9137ZM69.372 88.7292C69.372 88.1938 69.0294 87.648 68.5845 87.466C67.6493 86.9992 66.5661 87.7161 66.5661 88.7292V91.5163C66.5661 92.0508 66.9079 92.5971 67.3528 92.7795C68.2888 93.2455 69.372 92.5285 69.372 91.5163V88.7292ZM69.372 77.5439C69.372 77.0089 69.0294 76.4635 68.5845 76.2807C67.6493 75.8143 66.5661 76.5312 66.5661 77.5439V80.3431C66.5661 80.8667 66.9079 81.4126 67.3528 81.5949C68.2888 82.0613 69.372 81.3561 69.372 80.3431V77.5439ZM67.2501 67.178L67.1704 67.2349C66.9649 67.3717 66.7942 67.5532 66.7142 67.7582L66.6114 68.0547C66.5661 68.1915 66.5544 68.3388 66.5661 68.4642V69.1582C66.5661 69.6814 66.9079 70.239 67.3528 70.4097C68.0829 70.7744 68.904 70.421 69.2235 69.7726H70.7755C71.2997 69.7726 71.8591 69.4313 72.0298 68.9871C72.4974 68.0543 71.7907 66.9735 70.7755 66.9735H68.0716C67.786 66.9505 67.4899 67.03 67.2501 67.178ZM142.709 58.3255H127.149L141.557 43.9436C141.819 43.6931 141.968 43.3401 141.968 42.9536V21.1523C142.8 20.9142 143.542 20.4696 144.135 19.8782C145.037 18.968 145.607 17.7161 145.607 16.3282C145.607 14.9403 145.037 13.6884 144.135 12.7782L144.032 12.687C143.131 11.8341 141.911 11.3104 140.576 11.3104C139.184 11.3104 137.918 11.8684 137.006 12.7786C136.104 13.6775 135.534 14.9407 135.534 16.3286C135.534 17.7165 136.092 18.9684 137.006 19.8785C137.599 20.47 138.34 20.9142 139.173 21.1527V42.3847L123.18 58.3259H113.096L130.447 41.0194C130.698 40.7689 130.858 40.4163 130.858 40.0294V35.6487C130.858 34.8749 130.23 34.2491 129.454 34.2491C128.678 34.2491 128.051 34.8745 128.051 35.6487V39.4601L124.822 42.6804L118.195 36.0695V27.7749C119.027 27.5361 119.769 27.0923 120.362 26.5004C121.263 25.5898 121.834 24.327 121.834 22.9504C121.834 21.5622 121.263 20.299 120.362 19.4005C119.45 18.4903 118.184 17.921 116.803 17.921C115.411 17.921 114.145 18.4903 113.245 19.4005L113.153 19.5029C112.286 20.4022 111.761 21.6194 111.761 22.9508C111.761 24.3274 112.331 25.5793 113.245 26.5008C113.826 27.0806 114.568 27.5244 115.4 27.7753V36.65C115.4 37.0369 115.549 37.3783 115.811 37.6401L122.838 44.661L109.138 58.3259H101.575V22.6886C102.397 22.4498 103.138 22.006 103.731 21.4141C104.644 20.5035 105.203 19.252 105.203 17.8637C105.203 16.4759 104.644 15.2247 103.731 14.3145C102.819 13.4036 101.564 12.8464 100.172 12.8464C98.781 12.8464 97.5259 13.4036 96.6138 14.3145C95.7009 15.2247 95.1419 16.4762 95.1419 17.8637C95.1419 19.252 95.7005 20.5035 96.6138 21.4141C97.2067 22.006 97.9368 22.4494 98.7696 22.6886V49.4387L93.545 44.2277V28.6395C93.545 27.8661 92.9177 27.2399 92.1419 27.2399C91.3661 27.2399 90.7388 27.8657 90.7388 28.6395V44.8082C90.7388 45.1948 90.8985 45.5478 91.1493 45.7983L98.7692 53.3989V58.3259H91.4802L77.7685 44.661L84.8067 37.6401C85.0575 37.3783 85.2173 37.0369 85.2173 36.65V27.7749C86.0388 27.524 86.7802 27.0806 87.3739 26.4891C88.2747 25.5789 88.845 24.327 88.845 22.9504C88.845 21.6191 88.3208 20.4018 87.4653 19.5025L87.3743 19.4001C86.4614 18.4899 85.1954 17.9206 83.8149 17.9206C82.4235 17.9206 81.1575 18.4899 80.2563 19.4001C79.3438 20.299 78.7735 21.5622 78.7735 22.95C78.7735 24.3266 79.3438 25.5894 80.2563 26.5C80.8384 27.0919 81.579 27.5353 82.4122 27.7745V36.0691L75.7845 42.6801L72.5567 39.4597V35.6483C72.5567 34.8745 71.929 34.2487 71.1536 34.2487C70.3778 34.2487 69.7505 34.8741 69.7505 35.6483V40.0286C69.7505 40.4155 69.9103 40.7681 70.161 41.0186L87.5114 58.3251H77.4278L61.4458 42.3839V21.1523C62.2677 20.9142 63.0083 20.4696 63.6024 19.8782C64.5146 18.968 65.0739 17.7161 65.0739 16.3282C65.0739 14.9403 64.5032 13.6767 63.6024 12.7782C62.6896 11.868 61.4231 11.3101 60.0427 11.3101C58.6513 11.3101 57.397 11.868 56.4841 12.7782C55.572 13.6884 55.0017 14.9516 55.0017 16.3282C55.0017 17.7165 55.572 18.968 56.4841 19.8782C57.0661 20.4696 57.8075 20.9138 58.6407 21.1523V42.9536C58.6407 43.3401 58.8005 43.6931 59.0513 43.9436L73.4696 58.3255H57.8989V89.5478H57.454L38.4149 70.5574C38.1532 70.3072 37.8103 70.1478 37.4224 70.1478H33.0173C32.2528 70.1478 31.6251 70.7736 31.6251 71.5474C31.6251 72.3212 32.2528 72.947 33.0173 72.947H36.8388L40.0665 76.1673L33.4388 82.7779H25.1228C24.8837 81.9468 24.4388 81.2077 23.8458 80.6271C22.9329 79.7169 21.6786 79.1477 20.2864 79.1477C18.895 79.1477 17.6399 79.7169 16.7274 80.6271C15.8153 81.526 15.256 82.7888 15.256 84.1771C15.256 85.5537 15.8153 86.8165 16.7274 87.7154L16.8302 87.8178C17.731 88.6711 18.9517 89.1944 20.2864 89.1944C21.6669 89.1944 22.9329 88.6259 23.8458 87.727C24.4388 87.1348 24.8837 86.3953 25.1228 85.5763H34.0204C34.4087 85.5763 34.7622 85.4169 35.013 85.1668L42.0513 78.1459L55.8767 91.9367C56.1509 92.2094 56.5036 92.3462 56.8692 92.3462H57.8958V99.3553H20.0247C19.7849 98.5359 19.3399 97.7964 18.747 97.2046C17.8341 96.3057 16.5798 95.7364 15.1989 95.7364C13.8075 95.7364 12.5407 96.294 11.6286 97.2046C10.7271 98.1151 10.1567 99.3776 10.1567 100.755C10.1567 102.142 10.7271 103.406 11.6286 104.304C12.5407 105.215 13.8075 105.772 15.1989 105.772C16.5794 105.772 17.8454 105.215 18.7579 104.304C19.3399 103.724 19.7845 102.984 20.0247 102.154H46.8431L41.6185 107.365H26.0017C25.2259 107.365 24.5985 107.99 24.5985 108.765C24.5985 109.538 25.2255 110.164 26.0017 110.164H42.1997C42.5876 110.164 42.9411 110.005 43.1923 109.754L50.8122 102.154H57.8962V108.912H56.8696C56.504 108.912 56.1513 109.037 55.877 109.311L42.0517 123.101L35.0134 116.092C34.7626 115.831 34.4091 115.683 34.0208 115.683H25.1228C24.8837 114.852 24.4388 114.112 23.8341 113.521C22.9325 112.622 21.6669 112.053 20.286 112.053C18.9513 112.053 17.7306 112.576 16.8298 113.429L16.7271 113.532C15.8149 114.431 15.2556 115.694 15.2556 117.071C15.2556 118.459 15.8149 119.722 16.7271 120.632C17.6396 121.531 18.8946 122.1 20.286 122.1C21.6782 122.1 22.9325 121.531 23.8454 120.632C24.4384 120.04 24.8833 119.301 25.1224 118.47H33.4384L40.0661 125.081L36.8384 128.301H33.0169C32.2524 128.301 31.6247 128.927 31.6247 129.701C31.6247 130.475 32.2524 131.101 33.0169 131.101H37.4196C37.8075 131.101 38.1505 130.941 38.4122 130.691L57.4513 111.701H57.8962V142.923H73.4212L59.0485 157.26C58.7978 157.51 58.638 157.863 58.638 158.249V180.061C57.8052 180.3 57.0634 180.744 56.4813 181.324C55.5692 182.235 54.9989 183.498 54.9989 184.874C54.9989 186.263 55.5692 187.514 56.4813 188.424C57.3829 189.334 58.6485 189.903 60.0399 189.903C61.4204 189.903 62.6864 189.334 63.5997 188.424C64.5005 187.525 65.0712 186.262 65.0712 184.874C65.0712 183.498 64.5118 182.235 63.5997 181.324C63.006 180.744 62.2649 180.3 61.4431 180.061V158.83L77.3907 142.923H87.4634L70.1587 160.183C69.9079 160.434 69.7481 160.787 69.7481 161.173V165.554C69.7481 166.328 70.3755 166.954 71.1513 166.954C71.9263 166.954 72.5544 166.328 72.5544 165.554V161.754L75.7821 158.534L82.4099 165.133V173.439C81.577 173.678 80.836 174.122 80.254 174.702C79.3415 175.612 78.7712 176.875 78.7712 178.264C78.7712 179.64 79.3415 180.903 80.254 181.814C81.1552 182.713 82.4212 183.282 83.8126 183.282C85.1931 183.282 86.4591 182.713 87.372 181.802L87.463 181.7C88.3185 180.801 88.8427 179.583 88.8427 178.264C88.8427 176.875 88.2728 175.624 87.3716 174.714C86.7778 174.122 86.0364 173.678 85.2149 173.439V164.552C85.2149 164.177 85.0552 163.825 84.8044 163.563L77.7661 156.554L91.4321 142.923H98.7669V147.816L91.147 155.405C90.8958 155.667 90.7364 156.008 90.7364 156.395V172.563C90.7364 173.337 91.3634 173.963 92.1396 173.963C92.9157 173.963 93.5427 173.338 93.5427 172.563V156.975L98.7673 151.764V178.514C97.9345 178.753 97.2044 179.197 96.6114 179.789C95.6985 180.699 95.1395 181.95 95.1395 183.338C95.1395 184.726 95.6981 185.978 96.6114 186.888C97.5235 187.798 98.7786 188.356 100.17 188.356C101.562 188.356 102.817 187.798 103.729 186.888C104.642 185.978 105.2 184.726 105.2 183.338C105.2 181.95 104.642 180.699 103.729 179.789L103.638 179.709C103.056 179.163 102.348 178.742 101.573 178.514V142.923H109.17L122.836 156.554L115.809 163.563C115.547 163.825 115.399 164.177 115.399 164.552V173.439C114.566 173.678 113.824 174.122 113.243 174.714C112.329 175.624 111.759 176.876 111.759 178.264C111.759 179.584 112.284 180.801 113.151 181.7L113.243 181.802C114.143 182.713 115.41 183.282 116.801 183.282C118.182 183.282 119.448 182.713 120.36 181.814C121.261 180.903 121.832 179.64 121.832 178.264C121.832 176.875 121.261 175.612 120.36 174.702C119.767 174.122 119.025 173.678 118.193 173.439V165.133L124.82 158.534L128.049 161.754V165.554C128.049 166.328 128.676 166.954 129.452 166.954C130.227 166.954 130.856 166.328 130.856 165.554V161.173C130.856 160.787 130.696 160.434 130.445 160.183L113.14 142.923H123.223L139.171 158.83V180.061C138.338 180.3 137.597 180.744 137.004 181.324C136.09 182.235 135.532 183.498 135.532 184.874C135.532 186.263 136.102 187.526 137.004 188.424C137.916 189.334 139.182 189.903 140.574 189.903C141.954 189.903 143.22 189.334 144.133 188.424C145.034 187.525 145.604 186.262 145.604 184.874C145.604 183.498 145.034 182.235 144.133 181.324C143.54 180.744 142.798 180.3 141.965 180.061V158.249C141.965 157.863 141.817 157.51 141.554 157.26L127.181 142.923H142.707V111.86L161.585 130.691C161.836 130.941 162.19 131.101 162.578 131.101H166.97C167.745 131.101 168.373 130.475 168.373 129.701C168.373 128.927 167.746 128.301 166.97 128.301H163.16L159.931 125.081L166.559 118.47H174.875C175.114 119.301 175.559 120.04 176.152 120.632C177.054 121.531 178.32 122.1 179.711 122.1C181.103 122.1 182.358 121.531 183.27 120.632C184.183 119.722 184.742 118.459 184.742 117.071C184.742 115.694 184.172 114.431 183.27 113.532L183.168 113.429C182.266 112.576 181.045 112.053 179.711 112.053C178.319 112.053 177.065 112.622 176.152 113.521C175.559 114.112 175.114 114.852 174.874 115.683H165.977C165.589 115.683 165.236 115.831 164.984 116.092L157.946 123.101L144.12 109.311C143.847 109.037 143.481 108.912 143.127 108.901H142.706V102.154H149.185L156.794 109.754C157.056 110.005 157.409 110.164 157.786 110.164H173.996C174.771 110.164 175.399 109.538 175.399 108.765C175.399 107.991 174.771 107.365 173.996 107.365H158.371L153.158 102.154H179.965C180.204 102.984 180.649 103.724 181.242 104.304C182.155 105.215 183.409 105.772 184.801 105.772C186.193 105.772 187.459 105.215 188.36 104.304C189.273 103.405 189.843 102.142 189.843 100.755C189.843 99.3776 189.273 98.1151 188.36 97.2046C187.447 96.294 186.193 95.7364 184.801 95.7364C183.421 95.7364 182.166 96.3057 181.242 97.2155C180.66 97.8077 180.215 98.5359 179.976 99.355H142.709V92.3458H143.131C143.484 92.3458 143.85 92.209 144.123 91.9363L157.949 78.1455L164.987 85.1664C165.239 85.4165 165.592 85.5759 165.98 85.5759H174.706C174.821 86.7588 175.357 87.8171 176.155 88.6139C177.068 89.524 178.323 90.0816 179.714 90.0816C181.049 90.0816 182.269 89.5583 183.171 88.705L183.273 88.6143C184.175 87.7041 184.745 86.4522 184.745 85.0643C184.745 83.6764 184.186 82.4245 183.273 81.5143C182.361 80.6041 181.106 80.0462 179.715 80.0462C178.323 80.0462 177.057 80.6041 176.156 81.5143C175.779 81.879 175.471 82.3107 175.232 82.7775H166.562L159.934 76.1665L163.163 72.9462H166.973C167.749 72.9462 168.376 72.3204 168.376 71.5466C168.376 70.7728 167.749 70.1471 166.973 70.1471H162.581C162.193 70.1471 161.84 70.3064 161.589 70.5566L142.71 89.3877V58.3255H142.709Z" fill="#730505"/>
</svg>